<svg width="327" height="318" viewBox="0 0 327 318" fill="none" xmlns="http://www.w3.org/2000/svg">
<circle cx="161.882" cy="174.848" r="142.238" fill="#4FB8FF" fill-opacity="0.2" style="mix-blend-mode:multiply"/>
<g filter="url(#filter0_d_605_29031)">
<circle cx="149.238" cy="143.238" r="142.238" fill="url(#paint0_linear_605_29031)"/>
</g>
<circle cx="149.87" cy="143.87" r="92.2969" fill="url(#paint1_linear_605_29031)"/>
<path fill-rule="evenodd" clip-rule="evenodd" d="M202.578 146.398C198.788 182.634 168.145 210.88 130.905 210.88C91.1033 210.88 58.8376 178.614 58.8376 138.813C58.8376 99.0108 91.1033 66.7451 130.905 66.7451C166.393 66.7451 195.89 92.3959 201.867 126.168H220.673C226.26 126.168 230.788 130.697 230.788 136.283C230.788 141.869 226.26 146.398 220.673 146.398H202.578Z" fill="#44556B" fill-opacity="0.299677" style="mix-blend-mode:multiply"/>
<rect x="180.215" y="118.585" width="51.838" height="20.2294" rx="10.1147" fill="url(#paint2_linear_605_29031)"/>
<circle cx="119.526" cy="118.584" r="72.0674" fill="url(#paint3_radial_605_29031)"/>
<circle opacity="0.612432" cx="119.526" cy="118.584" r="39.1945" fill="#FCFCFC"/>
<path fill-rule="evenodd" clip-rule="evenodd" d="M92.2098 134.202L92.1188 134.199L92.0342 134.014L92.1268 133.972L92.2098 134.202ZM96.3347 99.55C96.2719 99.6085 96.2395 99.6681 96.2374 99.7288L95.7857 99.6219L96.0226 99.3569C96.053 99.358 96.1052 99.3826 96.1795 99.4307C96.2537 99.4789 96.3054 99.5186 96.3347 99.55ZM105.113 106.417C105.037 106.839 104.926 107.427 104.778 108.181C104.777 108.212 104.71 108.376 104.578 108.675C104.48 108.884 104.475 109.021 104.564 109.085C104.442 109.111 104.234 109.187 103.941 109.313C103.648 109.44 103.472 109.502 103.411 109.5C103.077 109.488 102.808 109.373 102.603 109.153C102.517 109.028 102.463 108.814 102.444 108.51C102.424 108.205 102.393 107.999 102.351 107.892C102.31 107.784 102.207 107.682 102.043 107.585C101.88 107.488 101.8 107.364 101.806 107.212C101.822 106.757 102.042 106.537 102.466 106.552C102.588 106.556 102.722 106.637 102.868 106.794C103.58 106.394 104.088 106.199 104.391 106.209C104.513 106.214 104.753 106.283 105.113 106.417ZM95.8122 100.171L95.5392 100.161L95.6397 99.8915C95.7568 100.017 95.8143 100.11 95.8122 100.171ZM99.0962 105.249C99.0063 105.216 98.8856 105.197 98.7339 105.191C98.736 105.131 98.7695 105.041 98.8344 104.922C98.8355 104.891 98.9228 105.001 99.0962 105.249ZM103.625 111.192L103.534 111.189L103.45 111.003L103.542 110.961L103.625 111.192ZM98.7491 106.056L98.4761 106.046L98.4809 105.91L98.7538 105.919L98.7491 106.056ZM92.2535 99.0439L91.9742 99.2164L91.9319 99.1238L92.2112 98.9514L92.2535 99.0439ZM98.3022 105.814L97.9837 105.803L97.9885 105.667L98.3069 105.678L98.3022 105.814ZM103.6 111.92L103.463 111.915L103.484 111.324L103.621 111.329L103.6 111.92ZM98.2001 106.128L98.0621 106.169C97.97 106.196 97.8937 106.208 97.8331 106.206C97.6208 106.199 97.5189 106.074 97.5273 105.831C97.5827 105.985 97.807 106.084 98.2001 106.128ZM97.7326 106.477L97.502 106.56L97.5068 106.424L97.6919 106.339L97.7326 106.477ZM97.0317 105.676C96.8152 105.79 96.5856 105.843 96.343 105.834C96.3765 105.745 96.5162 105.658 96.762 105.576L97.0317 105.676ZM98.9114 107.929C98.6948 108.043 98.3967 108.321 98.0169 108.764C97.8392 108.636 97.6421 108.629 97.4255 108.743C97.3095 108.587 97.2552 108.403 97.2627 108.191C97.2743 107.857 97.5286 107.532 98.0254 107.215C98.1164 107.219 98.222 107.237 98.3422 107.272C98.4364 107.184 98.5593 107.143 98.7109 107.148C98.6482 107.207 98.5237 107.294 98.3375 107.408C98.3364 107.439 98.3646 107.501 98.4221 107.594L98.6575 107.374C98.7181 107.376 98.8075 107.425 98.9257 107.52L98.9114 107.929ZM96.2762 107.746L96.1397 107.741L96.1477 107.513L96.2841 107.518L96.2762 107.746ZM102.291 115.471C102.168 115.527 102.091 115.555 102.061 115.554C102.062 115.524 102.079 115.464 102.113 115.374C102.146 115.284 102.163 115.224 102.165 115.193C102.163 115.224 102.185 115.27 102.228 115.332C102.271 115.394 102.293 115.441 102.291 115.471ZM96.7616 109.494L96.531 109.577L96.5342 109.486L96.7193 109.402L96.7616 109.494ZM88.8576 102.386L88.3931 102.643L88.3524 102.505L88.8152 102.293L88.8576 102.386ZM97.1102 130.112C97.1024 130.135 97.0946 130.159 97.0867 130.183C97.0971 130.118 97.1049 130.095 97.1102 130.112ZM85.6895 114.855L85.6883 114.891C85.6761 114.891 85.6766 114.879 85.6895 114.855ZM97.6988 110.117C97.6981 110.118 97.6973 110.118 97.6965 110.119L97.6933 110.21C97.6943 110.181 97.6961 110.15 97.6988 110.117ZM102.526 112.679C102.51 112.702 102.494 112.725 102.478 112.746L102.502 112.701C102.507 112.693 102.515 112.685 102.526 112.679ZM97.7019 110.08C97.7182 109.907 97.7552 109.678 97.8128 109.394C97.9404 109.217 98.1926 108.952 98.5692 108.601L99.0161 108.844C98.9858 108.843 99.1103 108.756 99.3896 108.584C99.5109 108.588 99.6787 108.564 99.8931 108.511C100.01 108.636 100.066 108.775 100.061 108.926C100.054 109.108 99.9435 109.241 99.7281 109.325C99.5126 109.408 99.3128 109.477 99.1288 109.531C99.1862 109.624 99.2756 109.673 99.3969 109.677C99.4272 109.678 99.4884 109.665 99.5805 109.638C99.6725 109.611 99.7488 109.599 99.8095 109.601C99.9308 109.605 100.289 109.769 100.885 110.094C100.976 110.097 101.023 110.053 101.027 109.962C101.231 110.182 101.439 110.326 101.649 110.394C101.709 110.426 101.692 110.456 101.6 110.483C101.658 110.576 101.778 110.626 101.96 110.632C101.953 110.814 101.903 110.949 101.809 111.037C101.958 111.103 102.079 111.122 102.171 111.095C102.108 111.154 101.984 111.225 101.799 111.31C101.794 111.461 101.837 111.539 101.928 111.542L102.064 111.547L102.157 111.504C102.15 111.686 102.087 111.775 101.965 111.771C101.905 111.769 101.875 111.745 101.877 111.7C101.878 111.654 101.864 111.631 101.834 111.63C101.802 111.659 101.785 111.719 101.782 111.81C101.772 112.083 101.987 112.455 102.426 112.926C102.517 112.929 102.61 112.887 102.704 112.799C102.798 112.711 102.784 112.665 102.663 112.661C102.599 112.658 102.554 112.664 102.527 112.678C102.667 112.476 102.798 112.2 102.919 111.85C102.894 111.697 102.873 111.423 102.857 111.028L103.13 111.037C103.296 111.499 103.417 111.943 103.493 112.371C103.434 112.308 103.389 112.306 103.356 112.366C103.221 112.756 103.086 113.169 102.949 113.604C102.812 114.04 102.622 114.284 102.377 114.336C102.124 114.631 101.888 115.078 101.67 115.677C101.451 116.277 101.351 116.744 101.37 117.079C101.216 117.134 101.137 117.238 101.132 117.389C101.189 117.482 101.247 117.56 101.306 117.623C101.39 117.808 101.326 117.897 101.114 117.89C101.084 117.889 101.039 117.857 100.981 117.794C100.692 118.239 100.555 118.69 100.569 119.146C100.178 119.922 99.5742 121.555 98.7585 124.047C98.6894 124.287 98.6652 124.545 98.686 124.819L98.4977 124.994C98.528 124.995 98.5654 125.012 98.6098 125.044C98.6543 125.076 98.6911 125.107 98.7204 125.139C98.6565 125.228 98.5903 125.385 98.5217 125.61C98.4531 125.835 98.3864 126.008 98.3215 126.127C98.3906 125.886 98.3892 125.491 98.3173 124.942C98.1174 125.452 97.8031 126.625 97.3746 128.462C97.364 128.765 97.3341 129.189 97.2847 129.734C97.2282 129.813 97.1701 129.939 97.1103 130.112C97.125 130.16 97.1207 130.518 97.0974 131.185C97.0889 131.427 97.0102 131.941 96.8614 132.725C96.8731 132.392 96.8724 131.541 96.8594 130.175C96.8008 130.112 96.7434 130.019 96.687 129.895C96.664 129.682 96.6752 129.364 96.7203 128.94C96.6597 128.938 96.6131 128.967 96.5807 129.026L96.2649 130.245L95.9009 130.232L95.8594 130.117C95.8318 130.04 95.8184 129.986 95.8195 129.956L96.0469 129.964C96.1087 129.936 96.1411 129.876 96.1443 129.785C96.1453 129.755 96.1122 129.617 96.0448 129.372C95.9775 129.127 95.9611 128.944 95.9957 128.824C95.9371 128.761 95.8797 128.668 95.8233 128.544C95.7323 128.541 95.6711 128.554 95.6397 128.584C95.6365 128.674 95.6935 128.783 95.8105 128.908C95.8053 129.06 95.8276 129.288 95.8777 129.594L95.7867 129.591C95.7416 130.014 95.6613 130.573 95.546 131.267C95.5439 131.328 95.4855 130.825 95.371 129.758C95.3353 129.909 95.2364 130.133 95.0742 130.431C95.1035 130.462 95.1788 130.48 95.3001 130.485L95.2508 131.895C95.1045 131.738 95.0345 131.568 95.0409 131.386C94.8956 131.199 94.8198 131.196 94.8134 131.378L94.8182 131.242C94.8506 131.182 94.8062 131.15 94.6849 131.146C94.5029 131.14 94.4088 131.228 94.4024 131.41C94.4003 131.47 94.4326 131.851 94.4992 132.552C94.5658 133.252 94.609 133.755 94.6287 134.059C94.5356 134.117 94.4587 134.144 94.3981 134.142C94.2585 132.923 94.1327 131.309 94.0206 129.301C94.0866 129.152 94.1269 128.865 94.1418 128.44C94.0832 128.377 93.9473 128.357 93.734 128.38C93.7509 127.895 93.8218 127.169 93.9467 126.202C93.9477 126.171 94.0042 126.075 94.1162 125.912C94.2282 125.748 94.2857 125.621 94.2889 125.53C94.2681 125.256 94.3919 124.32 94.6603 122.72C94.6311 122.688 94.5861 122.672 94.5255 122.669C94.4627 122.728 94.4287 122.833 94.4234 122.985C94.4308 122.772 94.4847 122.531 94.5852 122.262C94.556 122.23 94.5346 122.192 94.521 122.146C94.5074 122.1 94.486 122.061 94.4567 122.029C94.4253 122.059 94.3631 122.102 94.27 122.16C94.1882 122.764 94.2068 123.099 94.326 123.163C94.3229 123.254 94.2606 123.298 94.1393 123.294C94.1361 123.385 94.1622 123.507 94.2176 123.661L94.2081 123.934L93.8896 123.922C93.8582 123.952 93.8157 124.299 93.7621 124.966C93.7318 124.964 93.6999 125.009 93.6664 125.099C93.6329 125.189 93.5949 125.408 93.5524 125.755C93.5099 126.103 93.486 126.353 93.4807 126.504L93.4711 126.777C93.4733 126.716 93.4456 126.64 93.3881 126.546C93.2908 126.725 93.2086 126.905 93.1416 127.084L93.0554 126.945C92.9937 126.973 92.9288 127.092 92.8607 127.302L92.9485 127.396C93.0427 127.309 93.1049 127.265 93.1352 127.266C93.0693 127.416 92.9552 127.64 92.793 127.938C92.7627 127.937 92.7185 127.897 92.6605 127.819C92.6025 127.741 92.5583 127.702 92.528 127.701C92.6003 127.369 92.6412 127.067 92.6508 126.794C92.7417 126.797 92.8955 126.742 93.112 126.628C93.1152 126.537 93.1016 126.491 93.0713 126.49C93.0096 126.518 92.9782 126.547 92.9771 126.578C92.9792 126.517 92.951 126.455 92.8925 126.393C92.7356 126.539 92.6419 126.612 92.6116 126.61L92.6323 126.019C92.6584 126.141 92.7054 126.098 92.7735 125.887C92.7852 125.554 92.9072 125.103 93.1396 124.534C93.2725 124.205 93.3406 123.994 93.3438 123.903C93.3501 123.721 93.2493 123.566 93.0412 123.437C93.1343 123.38 93.2139 123.276 93.2798 123.127C93.3112 123.098 93.2971 123.067 93.2375 123.034C93.0859 123.029 93.0079 123.087 93.0037 123.208C93.01 123.026 93.1058 122.893 93.2909 122.808C93.2617 122.777 93.1864 122.759 93.0651 122.755C93.2001 122.365 93.2719 122.049 93.2804 121.806C93.1926 121.712 93.1032 121.663 93.0122 121.66L93.045 122.026C93.0083 122.207 92.8634 122.444 92.6102 122.739C92.607 122.83 92.6488 122.938 92.7355 123.062C92.6717 123.151 92.5451 123.299 92.3557 123.505L92.489 123.6L92.2616 123.592L92.314 122.091C92.1948 122.026 91.9663 122.049 91.6285 122.158L91.7713 121.981L91.638 121.885L91.5909 121.929L91.2302 121.826C91.3818 121.831 91.489 121.804 91.5518 121.746C91.4619 121.712 91.3275 121.647 91.1488 121.55L91.9221 121.577C91.7747 121.45 91.5797 121.382 91.3371 121.374L91.0594 121.501C90.9307 121.709 90.7224 122.02 90.4347 122.435C90.4326 122.496 90.4142 122.587 90.3797 122.707C90.3786 122.737 90.3927 122.768 90.422 122.799C90.4794 122.892 90.4475 122.937 90.3262 122.933C90.3252 122.963 90.3361 123.085 90.359 123.298C90.3005 123.235 90.1802 123.201 89.9983 123.195C89.9972 123.225 90.0312 123.12 90.1004 122.879L90.1147 122.47C90.1492 122.35 90.2162 122.17 90.3157 121.93C90.4151 121.691 90.4659 121.541 90.468 121.48C90.4797 121.147 90.3036 120.974 89.9396 120.961C89.8487 120.958 89.7409 120.999 89.6165 121.086C89.5925 120.903 89.4521 120.792 89.1954 120.753C88.9387 120.713 88.6896 120.674 88.4481 120.635L88.2725 120.447C88.3959 120.391 88.5836 120.23 88.8358 119.966L87.4711 119.918C87.4785 119.706 87.5581 119.602 87.7097 119.608C87.8007 119.611 87.8456 119.628 87.8446 119.658C87.8435 119.688 87.8733 119.704 87.934 119.707C88.1462 119.714 88.4145 119.64 88.7387 119.484C89.063 119.329 89.2429 119.175 89.2785 119.025C89.037 118.986 88.5826 118.955 87.9155 118.932C87.8548 118.93 87.8331 118.898 87.8504 118.838C87.8677 118.778 87.846 118.747 87.7854 118.745C87.7247 118.743 87.7014 118.757 87.7155 118.788C87.7296 118.819 87.7064 118.833 87.6457 118.831C87.5851 118.829 87.5409 118.79 87.5132 118.713C87.4855 118.636 87.4414 118.596 87.3807 118.594C87.3201 118.592 87.2892 118.606 87.2882 118.637L87.1972 118.633C86.9056 118.289 86.6385 118.113 86.3959 118.104C86.4565 118.107 86.5339 118.064 86.6281 117.976L86.2896 117.235C86.4109 117.24 86.5609 117.29 86.7397 117.388L86.8307 117.391C86.6008 117.019 86.3645 116.828 86.1219 116.82C86.0613 116.817 85.9996 116.846 85.9368 116.904C85.8793 116.811 85.8527 116.704 85.8569 116.583C85.8873 116.584 85.9395 116.608 86.0138 116.656C86.088 116.705 86.1403 116.729 86.1706 116.73C86.202 116.701 86.2187 116.656 86.2208 116.595C86.2399 116.049 86.0435 115.587 85.6317 115.208C85.7519 115.243 85.9203 115.203 86.1368 115.089C86.1075 115.058 86.0566 114.996 85.9839 114.902C85.9113 114.808 85.8609 114.731 85.8327 114.669C85.7567 114.757 85.709 114.819 85.6895 114.855L85.7042 114.437C85.7627 114.5 85.8662 114.579 86.0146 114.675C86.022 114.463 86.0787 114.146 86.1845 113.725C86.2903 113.303 86.3437 113.078 86.3447 113.047C86.3469 112.987 86.3051 112.879 86.2194 112.724C86.163 112.601 86.185 112.404 86.2855 112.134C86.227 112.072 86.1219 112.037 85.9703 112.032C85.9985 112.094 85.9943 112.215 85.9576 112.396C85.8687 112.332 85.7778 112.329 85.6847 112.387C85.7862 112.086 85.9307 111.644 86.1182 111.058C86.3056 110.473 86.5256 109.607 86.7781 108.462C86.8398 108.434 87.0005 108.182 87.26 107.705C87.1722 107.611 87.0964 107.608 87.0326 107.697C86.8672 108.086 86.6249 108.503 86.3058 108.947C86.0032 109.787 85.7158 110.627 85.4435 111.467C85.0362 112.698 84.8669 113.633 84.9356 114.273C84.8048 114.542 84.7404 114.646 84.7425 114.585C84.7372 114.737 84.7602 114.95 84.8113 115.225C84.8374 115.348 84.9246 115.457 85.0731 115.553C85.0752 115.493 84.9805 115.596 84.789 115.862C84.7252 115.951 84.6901 116.086 84.6838 116.268C84.6721 116.602 84.8712 116.988 85.2809 117.428C85.1931 117.334 85.075 117.238 84.9265 117.142C84.8835 117.505 84.8625 117.671 84.8636 117.641C84.7423 117.637 84.5927 117.571 84.415 117.443C84.4256 117.14 84.4274 116.654 84.4204 115.986C84.4133 115.318 84.4109 114.953 84.413 114.893C84.4395 114.134 84.6454 113.018 85.0309 111.544C85.1378 111.092 85.1985 110.874 85.2132 110.89C85.2278 110.906 85.2513 110.884 85.2838 110.824C85.3906 110.372 85.4443 110.139 85.4449 110.124C85.4454 110.109 85.5624 109.801 85.7959 109.202C85.9591 108.874 86.1737 108.381 86.4396 107.722C86.5401 107.452 86.7061 107.048 86.9374 106.51C87.0619 106.423 87.2036 106.276 87.3627 106.069C87.3701 105.857 87.4262 105.555 87.5309 105.164C87.5612 105.165 87.6057 105.197 87.6642 105.26C87.8201 105.144 87.9153 105.026 87.9498 104.905C87.8913 104.843 87.7993 104.87 87.6737 104.987C87.9104 104.297 88.1396 103.819 88.3614 103.553C89.3795 102.223 89.9492 101.559 90.0705 101.564C90.1615 101.567 90.221 101.599 90.2493 101.661L90.2916 101.754C90.323 101.724 90.3889 101.575 90.4894 101.305C90.6453 101.189 90.8241 101.066 91.026 100.937C91.2279 100.807 91.3174 100.636 91.2945 100.422C91.627 100.464 91.8409 100.426 91.9361 100.308C91.8962 100.58 91.8758 100.731 91.8747 100.761C92.1226 100.618 92.4035 100.4 92.7173 100.108L92.8083 100.111C92.8679 100.143 92.928 100.16 92.9887 100.163L94.9955 98.7753C94.8291 99.1945 94.4953 99.6231 93.9942 100.061C94.057 100.003 94.0846 100.079 94.0772 100.292L93.8498 100.284C93.7556 100.372 93.708 100.431 93.707 100.461C93.8596 100.436 94.1174 100.445 94.4803 100.488C94.3075 101.089 94.2189 101.45 94.2147 101.572C94.2094 101.723 94.2214 101.815 94.2507 101.846C94.3459 101.728 94.4741 101.535 94.6352 101.268C94.7283 101.21 94.8533 101.108 95.0102 100.962C95.0448 100.842 95.1725 100.664 95.3932 100.429C95.2246 100.909 95.0032 101.599 94.7288 102.501C94.7528 102.684 94.7589 102.942 94.7473 103.275C94.5473 103.785 94.45 103.963 94.4553 103.812C94.4521 103.903 94.4793 103.995 94.5367 104.088C94.5681 104.059 94.622 104.038 94.6983 104.025C94.7747 104.013 94.8134 103.991 94.8144 103.961C94.85 103.81 94.7769 103.732 94.5949 103.726C94.7582 103.397 94.9545 102.994 95.1837 102.516C95.1816 102.577 95.2142 102.73 95.2815 102.975C95.3489 103.221 95.3809 103.389 95.3778 103.48C95.3756 103.54 95.3175 103.682 95.2035 103.906C95.0894 104.13 95.0156 104.287 94.9821 104.377C94.8742 104.859 94.5335 105.484 93.9601 106.254C93.2569 107.262 92.8562 107.87 92.7578 108.079C92.5631 108.437 92.3988 108.795 92.2648 109.155L92.3478 109.386C92.2265 109.381 92.136 109.363 92.0764 109.331C91.9477 109.539 91.9257 109.735 92.0103 109.92C91.9486 109.949 91.8885 109.931 91.8299 109.869C91.3853 110.43 91.0462 111.01 90.8127 111.609C90.6283 112.544 90.2774 113.898 89.76 115.671C89.5579 116.241 89.459 116.466 89.4632 116.344C89.4537 116.617 89.5546 116.772 89.7658 116.81C89.977 116.848 90.1731 116.885 90.3539 116.922C90.2044 116.856 90.0052 116.91 89.7562 117.083C89.7541 117.144 89.7672 117.205 89.7954 117.267C89.856 117.269 89.9703 117.258 90.1381 117.233C90.306 117.209 90.4354 117.198 90.5264 117.201C90.5253 117.231 90.4625 117.29 90.3381 117.377C90.4844 117.534 90.5879 117.613 90.6485 117.615C90.8608 117.623 91.229 117.514 91.753 117.29C92.277 117.065 92.6007 116.924 92.7241 116.868C93.1572 116.64 93.4699 116.378 93.6625 116.081C93.8748 116.088 94.0394 116.155 94.1565 116.28C94.0592 116.459 93.9174 116.606 93.7312 116.721L93.3043 117.207L93.3012 117.298C93.4246 117.242 93.64 117.158 93.9475 117.047C93.981 116.957 94.0768 116.824 94.2348 116.647C94.5747 116.477 94.8388 116.304 95.0271 116.129C94.927 115.518 94.8764 115.228 94.8754 115.258C95.1184 114.386 95.485 113.017 95.9752 111.152C96.0066 111.123 95.993 111.077 95.9345 111.014C95.8717 111.072 95.8251 111.101 95.7948 111.1L95.8075 110.736C95.9256 110.831 95.9999 110.879 96.0302 110.881C96.1318 110.58 96.1094 110.352 95.963 110.195C96.327 110.208 96.5664 110.307 96.6813 110.493C96.7723 110.497 96.8204 110.422 96.8257 110.271C97.2514 110.255 97.5269 110.189 97.6525 110.072C97.6757 110.073 97.6922 110.075 97.7019 110.08ZM85.9856 112.898L85.8915 112.985L85.7159 112.797L85.81 112.709L85.9856 112.898ZM98.3887 126.813L98.2522 126.808L98.2729 126.217L98.4093 126.222L98.3887 126.813ZM85.8333 113.349L85.6968 113.344L85.7079 113.026L85.8444 113.031L85.8333 113.349ZM85.727 113.708C85.6073 113.704 85.5313 113.732 85.4991 113.791C85.5629 113.702 85.5959 113.627 85.598 113.566C85.6595 113.606 85.7025 113.653 85.727 113.708ZM85.7296 113.713C85.7616 113.789 85.7585 113.878 85.7202 113.981L85.7296 113.713ZM85.7296 113.715C85.7288 113.713 85.7279 113.712 85.7271 113.71C85.728 113.71 85.7289 113.71 85.7298 113.71L85.7296 113.715ZM93.3508 122.4L93.1625 122.576L93.2048 122.668L93.4402 122.449L93.3508 122.4ZM85.5141 114.658L85.3776 114.653L85.3856 114.426L85.522 114.431L85.5141 114.658ZM85.9326 115.72C85.8103 115.746 85.7486 115.775 85.7475 115.805L85.7554 115.578C85.7523 115.669 85.8113 115.716 85.9326 115.72ZM96.713 127.847L96.6061 128.299L96.7426 128.303L96.8494 127.852L96.713 127.847ZM92.8793 124.161L92.7429 124.156L92.7492 123.974L92.8857 123.979L92.8793 124.161ZM96.7833 128.439C96.753 128.438 96.6934 128.406 96.6046 128.342C96.6025 128.403 96.615 128.479 96.6421 128.571C96.6693 128.663 96.6823 128.724 96.6813 128.754C96.6865 128.603 96.7206 128.498 96.7833 128.439ZM96.9189 129.768L96.7825 129.763L96.7729 130.036L96.9094 130.041L96.9189 129.768ZM96.2003 130.789L96.0638 130.784L96.0733 130.512L96.2098 130.516L96.2003 130.789ZM95.0966 129.793C94.9002 129.331 94.7759 128.978 94.7238 128.733C94.7382 129.189 94.7422 129.508 94.7359 129.69C94.738 129.629 94.7705 129.57 94.8332 129.511C94.8896 129.634 94.9136 129.817 94.9051 130.06C94.9062 130.03 94.9305 129.985 94.9781 129.926C95.0257 129.867 95.0652 129.823 95.0966 129.793ZM92.3226 127.055L92.1862 127.051L92.1925 126.869L92.329 126.873L92.3226 127.055ZM93.9128 128.478L93.7165 128.881L93.6287 128.787L93.8218 128.475L93.9128 128.478ZM94.8107 130.148L94.6742 130.144L94.6663 130.371L94.8027 130.376L94.8107 130.148ZM92.1967 128.055C92.1319 128.174 92.0513 128.308 91.955 128.457L91.9629 128.229C91.9672 128.108 92.0451 128.05 92.1967 128.055ZM93.7989 130.431L93.6625 130.426L93.6704 130.199L93.8069 130.204L93.7989 130.431ZM94.8997 131.519L94.8007 131.743L94.7114 131.694L94.8103 131.47L94.8997 131.519ZM92.0413 128.594C92.0392 128.655 91.9906 128.744 91.8953 128.862C91.8075 128.768 91.7647 128.691 91.7668 128.63C91.9488 128.637 92.0403 128.625 92.0413 128.594ZM92.2861 132.018C92.1919 132.106 92.1433 132.195 92.1401 132.286C92.1433 132.195 92.0994 132.148 92.0084 132.145L91.9814 132.918C91.9846 132.827 91.9564 132.766 91.8968 132.733L91.8026 132.821C91.8569 133.005 91.9378 133.296 92.0454 133.695L92.0406 133.831C91.9602 133.525 91.8495 133.217 91.7085 132.909L91.7434 131.908C91.9818 132.038 92.1627 132.074 92.2861 132.018ZM98.4649 110.284L98.4242 110.146L98.148 110.227L98.1433 110.364L98.4649 110.284ZM87.6027 109.63L87.6122 109.357L87.4758 109.353L87.4662 109.626L87.6027 109.63ZM94.6786 116.981C94.527 116.976 94.4355 116.988 94.4041 117.017C94.2578 116.86 94.1998 116.782 94.2301 116.783C94.228 116.844 94.2562 116.906 94.3147 116.968C94.253 116.996 94.0934 117.219 93.836 117.635C93.9301 117.547 94.006 117.55 94.0634 117.643C94.19 117.495 94.3951 117.275 94.6786 116.981ZM89.4808 111.927L89.3459 111.877L89.1999 112.145L89.3332 112.241L89.4808 111.927ZM88.1869 111.153L88.1948 110.925L88.0584 110.92L88.0504 111.148L88.1869 111.153ZM87.3905 110.489L87.4096 109.943L87.2731 109.938L87.254 110.484L87.3905 110.489ZM89.4132 112.563L89.3677 112.561C89.3363 112.591 89.2752 112.604 89.1842 112.6C89.1235 112.598 89.0948 112.552 89.098 112.461C89.1011 112.37 89.0881 112.309 89.0588 112.277C88.9291 112.516 88.8783 112.666 88.9065 112.727L89.2249 112.739L89.4132 112.563ZM87.3342 110.804L87.3421 110.577L87.2057 110.572L87.1977 110.8L87.3342 110.804ZM93.8017 117.315C93.648 117.371 93.5203 117.548 93.4188 117.848C93.4815 117.79 93.5736 117.763 93.6949 117.767C93.7033 117.524 93.739 117.374 93.8017 117.315ZM88.9704 113.502L88.9879 113.002L88.8514 112.997L88.834 113.498L88.9704 113.502ZM87.1831 111.211C87.1182 111.33 87.0025 111.599 86.8361 112.018C87.0127 112.176 87.1048 112.149 87.1122 111.937C87.1154 111.846 87.1039 111.739 87.0778 111.617C87.1491 111.316 87.1842 111.18 87.1831 111.211ZM88.8022 114.409C88.8033 114.379 88.7903 114.317 88.7631 114.225C88.736 114.133 88.7229 114.072 88.724 114.042L88.7033 114.633C88.7076 114.512 88.7405 114.437 88.8022 114.409ZM93.6561 120.179L93.5667 120.131L93.4694 120.31L93.5588 120.358L93.6561 120.179ZM92.9096 119.379L92.8218 119.285L92.4484 119.545L92.5362 119.639L92.9096 119.379ZM89.2458 114.741C89.2154 114.74 89.1705 114.723 89.1109 114.691C89.205 114.603 89.2548 114.483 89.2601 114.332L88.6951 114.858C88.6366 114.796 88.577 114.763 88.5164 114.761C88.5558 115.37 88.565 115.977 88.5438 116.584C88.5752 116.554 88.672 116.391 88.8342 116.093C88.9252 116.096 88.9685 116.158 88.9643 116.28C88.9664 116.219 88.8964 116.05 88.7543 115.771C88.8756 115.776 88.9342 115.838 88.9299 115.96C89.1426 115.087 89.2479 114.68 89.2458 114.741ZM88.4539 111.344L87.8937 111.735C87.9177 111.918 87.8935 112.175 87.8212 112.506C87.5931 112.954 87.491 113.269 87.5149 113.452C87.3559 113.659 87.2711 113.914 87.2605 114.217C87.2584 114.278 87.4087 114.754 87.7116 115.645C87.6792 115.705 87.6459 115.787 87.6119 115.892C87.5779 115.997 87.5603 116.065 87.5593 116.095C87.5508 116.338 87.5867 116.612 87.6671 116.919C87.7214 117.103 87.8494 117.35 88.0511 117.661C87.8967 116.866 87.8174 116.529 87.8131 116.651C87.811 116.711 87.8911 116.593 88.0533 116.295C87.8527 115.954 87.7518 115.798 87.7507 115.829C87.7811 115.83 87.8548 115.893 87.9718 116.018C87.974 115.958 88.0226 115.868 88.1178 115.75C87.9401 115.623 87.8848 115.469 87.9518 115.289C88.0219 115.018 88.056 114.913 88.0539 114.974C87.965 114.91 87.9216 114.848 87.9237 114.787C87.9651 113.604 88.0245 112.772 88.1021 112.288C88.2005 112.079 88.3177 111.765 88.4539 111.344ZM89.3739 116.296L89.385 115.978C89.1728 115.971 89.0629 116.073 89.0555 116.285L89.3739 116.296ZM87.1013 112.254C87.0406 112.252 86.9659 112.219 86.877 112.155C86.8759 112.185 86.8356 112.252 86.7561 112.356C86.6766 112.459 86.6363 112.526 86.6353 112.556C86.5555 113.1 86.5046 113.69 86.4823 114.327C86.4813 114.357 86.489 114.57 86.5056 114.966C86.5221 115.361 86.5278 115.634 86.5225 115.786C86.5782 115.059 86.6922 113.97 86.8643 112.519C86.9271 112.46 87.006 112.372 87.1013 112.254ZM93.4987 120.766C93.4066 120.793 93.2984 120.85 93.1739 120.936L93.1596 121.346C93.1606 121.315 93.2522 121.303 93.4341 121.31C93.4362 121.249 93.4546 121.159 93.4891 121.038L93.4987 120.766ZM88.4625 116.309L88.389 115.806L88.2526 115.801L88.3261 116.304L88.4625 116.309ZM98.175 127.715L98.0385 127.71L98.1438 127.304L98.2802 127.309L98.175 127.715ZM92.6847 120.6L92.0023 120.577C91.8465 120.693 91.6294 120.822 91.3512 120.964L92.0615 121.49L92.4709 121.504C92.5097 121.262 92.581 120.961 92.6847 120.6ZM92.8478 127.665L92.7161 127.524L92.6675 127.613L92.7537 127.753L92.8478 127.665ZM92.548 128.43L92.4587 128.381L92.5592 128.111L92.6956 128.116L92.548 128.43ZM93.6767 130.018L93.6894 129.654L93.8259 129.659L93.8131 130.023L93.6767 130.018ZM93.021 130.542C92.9582 130.6 92.8965 130.629 92.8358 130.626C92.7385 130.805 92.6731 130.94 92.6396 131.03C92.7556 131.185 92.8439 131.264 92.9046 131.267C92.9035 131.297 92.8559 131.356 92.7618 131.444C92.7586 131.535 92.8328 131.583 92.9844 131.588L92.9294 131.859C92.9284 131.89 92.8243 131.825 92.6173 131.666C92.5123 130.327 92.4651 129.505 92.4757 129.202C92.4778 129.141 92.4961 129.051 92.5307 128.931C92.5653 128.81 92.5836 128.72 92.5857 128.659C92.5554 128.658 92.6145 128.706 92.7629 128.802L92.9951 128.674C92.8935 128.974 92.825 129.199 92.7893 129.35C92.7569 129.409 92.7856 129.456 92.8755 129.489C92.8149 129.487 92.7825 129.547 92.7782 129.668C92.7697 129.911 92.7942 130.079 92.8517 130.172C92.9092 130.265 92.9656 130.388 93.021 130.542ZM92.2015 131.833C92.052 131.767 91.9799 131.659 91.9852 131.507C91.8974 131.413 91.8384 131.365 91.808 131.364C91.7421 131.514 91.707 131.649 91.7028 131.77C91.707 131.649 91.6909 131.459 91.6544 131.199C91.6179 130.94 91.6007 130.78 91.6028 130.719C91.6007 130.78 91.6808 130.661 91.843 130.363C91.8754 130.304 91.8991 130.062 91.9139 129.637C91.941 129.729 91.9461 130.018 91.9292 130.503C91.9122 130.988 92.003 131.432 92.2015 131.833ZM88.8956 115.642L88.7591 115.637L88.7798 115.045L88.9162 115.05L88.8956 115.642Z" fill="url(#paint4_linear_605_29031)"/>
<path fill-rule="evenodd" clip-rule="evenodd" d="M149.521 123.347L149.434 123.387L149.266 123.254L149.333 123.17L149.521 123.347ZM136.795 88.7817C136.764 88.8669 136.762 88.9385 136.789 88.9965L136.313 89.1125L136.409 88.7497C136.438 88.7362 136.499 88.7342 136.592 88.7439C136.685 88.7536 136.753 88.7662 136.795 88.7817ZM148.341 91.0313C148.472 91.4648 148.649 92.0715 148.871 92.8513C148.885 92.8804 148.901 93.0671 148.92 93.4115C148.928 93.6554 148.989 93.786 149.103 93.8034C149.001 93.8866 148.842 94.0578 148.627 94.317C148.412 94.5763 148.276 94.7194 148.218 94.7465C147.898 94.8954 147.59 94.9156 147.292 94.8072C147.15 94.7317 146.998 94.5555 146.833 94.2788C146.669 94.002 146.541 93.823 146.45 93.7417C146.359 93.6604 146.214 93.6134 146.013 93.6008C145.813 93.5882 145.679 93.5093 145.612 93.3641C145.408 92.9287 145.51 92.6162 145.917 92.4267C146.033 92.3726 146.197 92.3842 146.41 92.4617C146.888 91.7439 147.272 91.3174 147.563 91.182C147.679 91.1279 147.938 91.0776 148.341 91.0313ZM136.6 89.6121L136.339 89.7339L136.304 89.432C136.475 89.494 136.573 89.554 136.6 89.6121ZM142.123 92.8163C142.022 92.8279 141.899 92.8675 141.754 92.9352C141.727 92.8771 141.716 92.7765 141.72 92.6333C141.706 92.6043 141.841 92.6653 142.123 92.8163ZM149.23 96.2359L149.143 96.2766L148.975 96.143L149.041 96.0588L149.23 96.2359ZM142.184 93.7422L141.922 93.864L141.862 93.7334L142.123 93.6115L142.184 93.7422ZM132.714 90.2605L132.534 90.5565L132.45 90.4897L132.63 90.1937L132.714 90.2605ZM141.647 93.729L141.342 93.8711L141.281 93.7405L141.586 93.5984L141.647 93.729ZM149.555 96.9332L149.425 96.9941L149.161 96.428L149.291 96.3671L149.555 96.9332ZM141.702 94.0722L141.592 94.1767C141.518 94.2463 141.452 94.2947 141.394 94.3217C141.191 94.4165 141.035 94.3477 140.927 94.1155C141.053 94.2336 141.311 94.2192 141.702 94.0722ZM141.429 94.625L141.252 94.8136L141.191 94.683L141.324 94.5147L141.429 94.625ZM140.387 94.2105C140.238 94.4214 140.047 94.581 139.815 94.6893C139.803 94.5887 139.893 94.4407 140.085 94.2453L140.387 94.2105ZM143.234 95.4266C143.085 95.6374 142.938 96.0418 142.792 96.6397C142.564 96.6048 142.375 96.6928 142.226 96.9036C142.042 96.8126 141.903 96.6655 141.808 96.4623C141.66 96.143 141.743 95.7154 142.058 95.1795C142.145 95.1389 142.254 95.106 142.384 95.0809C142.43 94.9532 142.526 94.8555 142.671 94.7879C142.64 94.873 142.564 95.0142 142.444 95.2116C142.458 95.2406 142.514 95.2851 142.613 95.3451L142.729 95.0259C142.787 94.9988 142.894 95.0017 143.051 95.0347L143.234 95.4266ZM140.668 96.517L140.537 96.5779L140.435 96.3602L140.566 96.2992L140.668 96.517ZM150.027 100.898C149.938 101.011 149.879 101.074 149.85 101.087C149.836 101.058 149.824 100.993 149.812 100.893C149.801 100.792 149.788 100.727 149.774 100.698C149.788 100.727 149.83 100.761 149.901 100.798C149.971 100.836 150.013 100.869 150.027 100.898ZM141.962 97.9297L141.785 98.1183L141.744 98.0312L141.878 97.8629L141.962 97.9297ZM131.122 95.031L130.808 95.4953L130.704 95.385L131.038 94.9643L131.122 95.031ZM134.117 108.276L134.134 108.311C134.122 108.316 134.117 108.304 134.117 108.276ZM143.141 98.0627C143.141 98.0638 143.141 98.0649 143.14 98.066L143.181 98.1531C143.168 98.1255 143.155 98.0954 143.141 98.0627ZM148.91 98.1591C148.906 98.1887 148.901 98.2175 148.896 98.2454L148.897 98.1918C148.897 98.1811 148.902 98.1702 148.91 98.1591ZM143.127 98.029C143.144 98.0287 143.149 98.0406 143.141 98.0647C143.136 98.0531 143.132 98.0412 143.127 98.029ZM143.127 98.0286C143.059 97.8579 142.984 97.6252 142.902 97.3304C142.937 97.102 143.048 96.7325 143.234 96.2217L143.771 96.2364C143.742 96.2499 143.817 96.1087 143.997 95.8127C144.113 95.7585 144.259 95.655 144.436 95.5022C144.606 95.5642 144.725 95.6678 144.792 95.8129C144.874 95.9871 144.833 96.1651 144.67 96.3469C144.508 96.5288 144.353 96.6893 144.206 96.8286C144.305 96.8886 144.412 96.8916 144.528 96.8374C144.557 96.8239 144.608 96.7823 144.682 96.7126C144.755 96.643 144.821 96.5946 144.879 96.5676C144.995 96.5134 145.411 96.4961 146.127 96.5157C146.214 96.4751 146.238 96.4112 146.197 96.3242C146.495 96.4326 146.759 96.4685 146.989 96.4318C147.061 96.4337 147.06 96.4695 146.987 96.5392C147.085 96.5992 147.222 96.5886 147.396 96.5074C147.477 96.6815 147.494 96.8325 147.448 96.9602C147.62 96.9505 147.743 96.9109 147.817 96.8413C147.786 96.9264 147.703 97.0531 147.57 97.2214C147.637 97.3666 147.715 97.4188 147.802 97.3782L147.933 97.3173L147.999 97.2332C148.081 97.4073 148.063 97.5215 147.947 97.5756C147.889 97.6027 147.85 97.5945 147.829 97.5509C147.809 97.5074 147.784 97.4924 147.755 97.5059C147.74 97.5485 147.752 97.6133 147.793 97.7004C147.915 97.9617 148.295 98.2085 148.934 98.4409C149.021 98.4003 149.087 98.3161 149.134 98.1884C149.18 98.0607 149.146 98.024 149.029 98.0781C148.968 98.1066 148.928 98.1339 148.91 98.16C148.945 97.9022 148.935 97.5798 148.882 97.1928C148.785 97.0612 148.634 96.8135 148.429 96.4496L148.69 96.3278C149.068 96.682 149.394 97.042 149.671 97.4078C149.586 97.3768 149.542 97.3971 149.54 97.4687C149.6 97.9002 149.67 98.3535 149.75 98.8286C149.831 99.3037 149.768 99.6244 149.563 99.7907C149.466 100.189 149.459 100.723 149.541 101.391C149.623 102.06 149.753 102.547 149.931 102.853C149.813 102.979 149.787 103.114 149.855 103.259C149.954 103.319 150.046 103.365 150.131 103.396C150.299 103.529 150.282 103.644 150.078 103.738C150.049 103.752 149.992 103.743 149.907 103.712C149.849 104.269 149.936 104.759 150.168 105.181C150.172 106.098 150.387 107.924 150.814 110.658C150.864 110.917 150.964 111.171 151.115 111.419L151.022 111.674C151.051 111.66 151.094 111.658 151.151 111.667C151.209 111.676 151.258 111.688 151.301 111.703C151.284 111.817 151.297 111.997 151.34 112.242C151.383 112.486 151.403 112.68 151.399 112.824C151.349 112.564 151.159 112.194 150.828 111.712C150.884 112.286 151.15 113.54 151.628 115.474C151.763 115.764 151.938 116.177 152.153 116.713C152.137 116.814 152.143 116.96 152.17 117.152C152.207 117.19 152.374 117.529 152.672 118.167C152.78 118.4 152.952 118.92 153.188 119.729C153.039 119.41 152.631 118.61 151.964 117.331C151.879 117.3 151.78 117.24 151.668 117.151C151.544 116.962 151.402 116.657 151.242 116.237C151.184 116.264 151.154 116.313 151.152 116.385L151.439 117.682L151.09 117.845L150.996 117.756C150.933 117.697 150.895 117.653 150.881 117.624L151.099 117.523C151.144 117.466 151.145 117.395 151.105 117.308C151.091 117.279 150.994 117.165 150.813 116.967C150.632 116.768 150.529 116.604 150.504 116.475C150.419 116.444 150.32 116.384 150.208 116.295C150.121 116.335 150.07 116.377 150.054 116.419C150.095 116.506 150.2 116.581 150.371 116.643C150.438 116.788 150.569 116.992 150.762 117.255L150.675 117.296C150.836 117.716 151.028 118.28 151.252 118.988C151.279 119.046 150.984 118.601 150.365 117.653C150.403 117.812 150.418 118.07 150.408 118.428C150.45 118.443 150.53 118.424 150.646 118.37L151.275 119.72C151.063 119.642 150.916 119.517 150.834 119.342C150.608 119.236 150.535 119.27 150.617 119.444L150.556 119.313C150.558 119.242 150.501 119.233 150.384 119.287C150.21 119.368 150.164 119.496 150.245 119.67C150.272 119.728 150.485 120.071 150.883 120.698C151.282 121.325 151.563 121.777 151.727 122.054C151.667 122.152 151.608 122.215 151.55 122.242C150.835 121.162 149.943 119.705 148.876 117.87C148.866 117.698 148.766 117.409 148.577 117.002C148.492 116.971 148.354 117.018 148.165 117.141C147.948 116.677 147.667 115.96 147.321 114.99C147.307 114.961 147.314 114.843 147.341 114.636C147.368 114.429 147.362 114.282 147.321 114.195C147.17 113.947 146.838 113.007 146.323 111.374C146.281 111.358 146.23 111.364 146.172 111.391C146.141 111.476 146.16 111.591 146.227 111.736C146.133 111.533 146.068 111.281 146.033 110.979C145.991 110.963 145.952 110.937 145.917 110.9C145.882 110.864 145.844 110.838 145.801 110.822C145.785 110.865 145.748 110.935 145.688 111.034C145.9 111.642 146.078 111.947 146.222 111.951C146.262 112.038 146.224 112.109 146.108 112.163C146.149 112.25 146.232 112.353 146.358 112.471L146.48 112.732L146.175 112.874C146.159 112.917 146.286 113.264 146.555 113.916C146.526 113.93 146.517 113.987 146.529 114.088C146.54 114.188 146.609 114.412 146.736 114.76C146.863 115.107 146.96 115.353 147.027 115.498L147.149 115.76C147.122 115.702 147.059 115.642 146.961 115.582C146.955 115.797 146.963 116.005 146.987 116.207L146.839 116.116C146.794 116.173 146.79 116.316 146.827 116.546L146.954 116.593C147.001 116.465 147.039 116.394 147.068 116.381C147.077 116.553 147.077 116.818 147.068 117.176C147.038 117.19 146.978 117.174 146.886 117.128C146.794 117.083 146.734 117.067 146.705 117.08C146.614 116.734 146.508 116.43 146.386 116.169C146.473 116.128 146.591 116.002 146.74 115.791C146.699 115.704 146.665 115.668 146.635 115.681C146.591 115.737 146.575 115.78 146.589 115.809C146.562 115.751 146.506 115.706 146.421 115.675C146.343 115.888 146.29 116.001 146.261 116.015L145.997 115.449C146.08 115.551 146.103 115.487 146.067 115.257C145.918 114.938 145.816 114.455 145.762 113.809C145.73 113.435 145.693 113.205 145.652 113.118C145.571 112.944 145.402 112.846 145.144 112.825C145.204 112.726 145.23 112.59 145.22 112.418C145.236 112.376 145.207 112.353 145.136 112.351C144.991 112.419 144.945 112.511 144.999 112.627C144.918 112.453 144.944 112.282 145.078 112.113C145.035 112.098 144.956 112.117 144.84 112.171C144.78 111.74 144.696 111.408 144.588 111.176C144.46 111.129 144.353 111.126 144.265 111.167L144.471 111.495C144.524 111.683 144.501 111.976 144.404 112.374C144.445 112.462 144.536 112.543 144.677 112.618C144.66 112.733 144.611 112.932 144.532 113.216L144.703 113.242L144.485 113.344L143.815 111.907C143.672 111.903 143.468 112.034 143.203 112.299L143.252 112.064L143.081 112.037L143.058 112.101L142.669 112.177C142.814 112.109 142.902 112.032 142.933 111.947C142.832 111.959 142.675 111.962 142.46 111.956L143.2 111.611C143.001 111.562 142.785 111.592 142.553 111.701L142.352 111.953C142.331 112.21 142.285 112.603 142.213 113.131C142.24 113.189 142.266 113.283 142.291 113.413C142.305 113.442 142.333 113.464 142.375 113.48C142.474 113.54 142.465 113.597 142.349 113.651C142.363 113.68 142.431 113.789 142.555 113.979C142.47 113.948 142.34 113.973 142.166 114.054C142.18 114.083 142.161 113.968 142.111 113.709L141.928 113.317C141.903 113.187 141.88 112.986 141.859 112.713C141.838 112.44 141.813 112.275 141.786 112.217C141.638 111.898 141.389 111.819 141.041 111.982C140.953 112.022 140.872 112.113 140.797 112.254C140.686 112.094 140.501 112.056 140.241 112.142C139.981 112.229 139.728 112.311 139.482 112.39L139.226 112.297C139.315 112.185 139.415 111.944 139.526 111.575L138.219 112.184C138.124 111.981 138.15 111.845 138.295 111.778C138.382 111.737 138.432 111.731 138.446 111.76C138.459 111.789 138.495 111.79 138.553 111.763C138.756 111.668 138.973 111.47 139.204 111.168C139.434 110.867 139.53 110.636 139.491 110.478C139.245 110.557 138.803 110.745 138.164 111.043C138.106 111.07 138.071 111.051 138.059 110.987C138.046 110.922 138.011 110.903 137.953 110.93C137.895 110.957 137.88 110.982 137.908 111.004C137.936 111.026 137.921 111.051 137.863 111.078C137.805 111.105 137.744 111.089 137.681 111.03C137.618 110.971 137.558 110.955 137.5 110.982C137.442 111.009 137.419 111.037 137.433 111.066L137.346 111.107C136.907 110.923 136.571 110.885 136.339 110.993C136.397 110.966 136.449 110.889 136.496 110.761L135.822 110.227C135.938 110.173 136.104 110.149 136.319 110.155L136.406 110.114C136.011 109.874 135.698 109.808 135.465 109.916C135.407 109.943 135.363 109.999 135.332 110.085C135.233 110.025 135.157 109.937 135.103 109.82C135.132 109.807 135.193 109.805 135.286 109.815C135.378 109.824 135.439 109.822 135.468 109.809C135.484 109.766 135.478 109.716 135.451 109.658C135.207 109.135 134.801 108.795 134.232 108.636C134.362 108.611 134.501 108.493 134.65 108.282C134.608 108.266 134.53 108.232 134.417 108.179C134.304 108.126 134.219 108.077 134.163 108.032C134.134 108.152 134.119 108.233 134.117 108.276L133.931 107.875C134.016 107.906 134.151 107.932 134.337 107.951C134.242 107.748 134.144 107.423 134.041 106.976C133.939 106.529 133.881 106.291 133.867 106.262C133.84 106.204 133.749 106.122 133.594 106.018C133.482 105.929 133.409 105.733 133.374 105.431C133.289 105.4 133.174 105.419 133.029 105.486C133.085 105.531 133.139 105.647 133.191 105.835C133.077 105.817 132.99 105.858 132.93 105.957C132.882 105.626 132.805 105.14 132.701 104.499C132.597 103.859 132.389 102.94 132.078 101.742C132.122 101.686 132.152 101.371 132.168 100.799C132.04 100.752 131.968 100.786 131.95 100.9C131.981 101.345 131.953 101.853 131.866 102.424C131.983 103.359 132.116 104.286 132.262 105.208C132.469 106.56 132.758 107.521 133.129 108.09C133.135 108.405 133.125 108.534 133.097 108.476C133.165 108.621 133.289 108.811 133.469 109.045C133.552 109.148 133.686 109.209 133.872 109.228C133.845 109.17 133.805 109.312 133.753 109.655C133.736 109.769 133.767 109.913 133.849 110.087C133.998 110.406 134.37 110.674 134.966 110.891C134.838 110.845 134.682 110.812 134.496 110.793C134.629 111.154 134.689 111.321 134.676 111.292C134.559 111.346 134.387 111.356 134.159 111.321C134.024 111.03 133.792 110.573 133.466 109.948C133.139 109.323 132.962 108.981 132.935 108.923C132.596 108.197 132.255 107.049 131.911 105.477C131.795 105.001 131.748 104.767 131.769 104.775C131.79 104.783 131.802 104.751 131.804 104.679C131.688 104.203 131.627 103.958 131.62 103.943C131.613 103.929 131.576 103.584 131.509 102.909C131.505 102.521 131.47 101.955 131.405 101.208C131.37 100.906 131.332 100.446 131.292 99.8289C131.367 99.6876 131.43 99.4816 131.481 99.2107C131.386 99.0075 131.294 98.6969 131.205 98.2789C131.234 98.2654 131.291 98.2741 131.376 98.3051C131.467 98.1213 131.5 97.9646 131.475 97.8349C131.39 97.8039 131.316 97.8736 131.255 98.0438C131.146 97.2814 131.133 96.7222 131.214 96.3662C131.534 94.6267 131.752 93.7299 131.868 93.6758C131.955 93.6351 132.027 93.6371 132.083 93.6816L132.167 93.7484C132.183 93.7058 132.173 93.5336 132.138 93.2317C132.229 93.0479 132.339 92.8467 132.466 92.6281C132.594 92.4095 132.596 92.2054 132.472 92.0157C132.805 91.8958 132.988 91.7575 133.021 91.6008C133.114 91.8756 133.167 92.0275 133.181 92.0565C133.345 91.8031 133.505 91.4636 133.66 91.0379L133.747 90.9973C133.819 90.9993 133.883 90.9867 133.941 90.9596L135.164 88.6931C135.208 89.1672 135.1 89.7303 134.838 90.3823C134.869 90.2972 134.932 90.3562 135.027 90.5594L134.809 90.6609C134.763 90.7886 134.746 90.867 134.76 90.896C134.892 90.7993 135.138 90.6842 135.5 90.5508C135.626 91.1991 135.716 91.5813 135.77 91.6974C135.837 91.8425 135.893 91.9229 135.935 91.9384C135.968 91.7816 135.996 91.5388 136.02 91.2098C136.08 91.1112 136.148 90.9554 136.226 90.7426C136.201 90.613 136.236 90.3846 136.33 90.0576C136.402 90.5898 136.525 91.3454 136.698 92.3246C136.809 92.4852 136.938 92.7252 137.087 93.0445C137.143 93.6193 137.137 93.834 137.07 93.6889C137.11 93.776 137.18 93.8495 137.278 93.9095C137.294 93.867 137.335 93.8215 137.4 93.7732C137.466 93.7248 137.492 93.6861 137.479 93.6571C137.44 93.4984 137.334 93.4597 137.16 93.5409C137.156 93.1539 137.147 92.6808 137.134 92.1216C137.161 92.1796 137.265 92.3078 137.446 92.5062C137.627 92.7046 137.737 92.8474 137.778 92.9345C137.805 92.9925 137.819 93.1541 137.818 93.4192C137.818 93.6843 137.824 93.8671 137.836 93.9678C137.965 94.4728 137.945 95.2246 137.774 96.223C137.596 97.5078 137.51 98.2721 137.518 98.5159C137.506 98.9455 137.524 99.3615 137.57 99.764L137.758 99.9411C137.642 99.9952 137.548 100.021 137.477 100.019C137.456 100.277 137.529 100.472 137.697 100.606C137.653 100.662 137.588 100.674 137.503 100.643C137.354 101.384 137.313 102.093 137.38 102.768C137.655 103.736 137.974 105.177 138.337 107.093C138.42 107.726 138.434 107.984 138.38 107.868C138.502 108.129 138.671 108.227 138.888 108.161C139.105 108.096 139.307 108.037 139.495 107.984C139.322 107.994 139.161 108.14 139.01 108.423C139.037 108.481 139.079 108.532 139.135 108.576C139.193 108.549 139.295 108.484 139.441 108.381C139.587 108.277 139.704 108.205 139.791 108.164C139.804 108.193 139.773 108.279 139.698 108.42C139.911 108.497 140.046 108.523 140.104 108.495C140.307 108.401 140.601 108.122 140.987 107.66C141.372 107.197 141.609 106.91 141.698 106.798C141.996 106.376 142.165 105.98 142.203 105.608C142.407 105.513 142.593 105.497 142.764 105.559C142.758 105.774 142.695 105.98 142.575 106.177L142.406 106.839L142.447 106.926C142.536 106.814 142.698 106.632 142.935 106.38C142.923 106.28 142.949 106.108 143.013 105.867C143.251 105.544 143.417 105.254 143.51 104.999C143.123 104.472 142.936 104.224 142.95 104.253C142.76 103.316 142.449 101.853 142.016 99.864C142.032 99.8214 141.997 99.7846 141.912 99.7536C141.881 99.8388 141.851 99.8881 141.822 99.9016L141.66 99.5533C141.816 99.5862 141.909 99.5959 141.938 99.5824C141.89 99.2515 141.759 99.0473 141.547 98.9699C141.895 98.8074 142.168 98.7862 142.365 98.9062C142.452 98.8656 142.462 98.7728 142.394 98.6276C142.787 98.4091 143.014 98.2147 143.076 98.0444C143.099 98.034 143.115 98.0288 143.127 98.0286ZM133.458 106.293L133.412 106.421L133.156 106.328L133.203 106.2L133.458 106.293ZM151.791 113.435L151.66 113.496L151.396 112.93L151.527 112.869L151.791 113.435ZM133.53 106.792L133.4 106.852L133.257 106.548L133.388 106.487L133.53 106.792ZM133.603 107.18C133.489 107.234 133.43 107.296 133.428 107.367C133.446 107.253 133.441 107.167 133.414 107.109C133.491 107.117 133.554 107.141 133.603 107.18ZM133.608 107.183C133.674 107.239 133.714 107.324 133.727 107.439L133.608 107.183ZM133.608 107.184C133.607 107.183 133.605 107.181 133.603 107.18C133.604 107.179 133.605 107.179 133.606 107.179L133.608 107.184ZM144.939 111.7L144.846 111.956L144.93 112.023L145.046 111.703L144.939 111.7ZM133.858 108.176L133.727 108.237L133.626 108.019L133.756 107.958L133.858 108.176ZM134.76 108.972C134.658 109.055 134.613 109.111 134.627 109.14L134.525 108.923C134.566 109.01 134.644 109.026 134.76 108.972ZM150.711 115.211L150.827 115.687L150.957 115.626L150.841 115.15L150.711 115.211ZM145.339 113.582L145.208 113.643L145.127 113.469L145.257 113.408L145.339 113.582ZM151.062 115.737C151.033 115.751 150.961 115.749 150.847 115.732C150.874 115.79 150.922 115.855 150.992 115.929C151.061 116.003 151.103 116.054 151.117 116.083C151.049 115.938 151.031 115.823 151.062 115.737ZM151.825 116.919L151.694 116.98L151.816 117.241L151.947 117.18L151.825 116.919ZM151.639 118.225L151.508 118.286L151.386 118.024L151.517 117.964L151.639 118.225ZM150.124 117.818C149.717 117.478 149.431 117.205 149.265 116.999C149.497 117.421 149.653 117.719 149.735 117.894C149.708 117.836 149.709 117.764 149.74 117.679C149.853 117.768 149.963 117.928 150.071 118.161C150.058 118.132 150.059 118.078 150.076 118C150.092 117.921 150.108 117.861 150.124 117.818ZM146.203 116.572L146.072 116.633L145.991 116.458L146.121 116.397L146.203 116.572ZM148.379 117.147L148.388 117.62L148.26 117.574L148.292 117.188L148.379 117.147ZM150.025 118.287L149.894 118.348L149.996 118.565L150.126 118.504L150.025 118.287ZM146.562 117.569C146.558 117.713 146.547 117.877 146.527 118.063L146.426 117.845C146.372 117.729 146.417 117.637 146.562 117.569ZM149.209 119.04L149.078 119.101L148.977 118.883L149.108 118.822L149.209 119.04ZM150.764 119.533L150.779 119.792L150.672 119.789L150.657 119.53L150.764 119.533ZM146.675 118.154C146.702 118.212 146.699 118.32 146.666 118.477C146.539 118.43 146.461 118.378 146.434 118.32C146.608 118.239 146.689 118.183 146.675 118.154ZM148.546 121.257C148.5 121.385 148.497 121.492 148.537 121.579C148.497 121.492 148.433 121.469 148.346 121.51L148.691 122.25C148.651 122.163 148.594 122.118 148.523 122.116L148.476 122.244C148.616 122.391 148.831 122.626 149.123 122.95L149.184 123.08C148.962 122.83 148.71 122.594 148.43 122.372L147.983 121.414C148.27 121.422 148.457 121.369 148.546 121.257ZM143.941 97.8522L143.837 97.7419L143.616 97.9508L143.677 98.0815L143.941 97.8522ZM133.413 102.446L133.291 102.185L133.16 102.246L133.282 102.507L133.413 102.446ZM143.591 105.969C143.445 106.037 143.365 106.092 143.35 106.134C143.137 106.057 143.045 106.011 143.074 105.998C143.101 106.056 143.157 106.1 143.242 106.131C143.198 106.187 143.154 106.473 143.111 106.988C143.158 106.86 143.23 106.826 143.329 106.886C143.378 106.687 143.465 106.381 143.591 105.969ZM136.28 103.705L136.129 103.722L136.12 104.045L136.291 104.071L136.28 103.705ZM134.692 103.597L134.591 103.38L134.46 103.441L134.562 103.658L134.692 103.597ZM133.624 103.354L133.381 102.831L133.25 102.892L133.494 103.415L133.624 103.354ZM136.521 104.337L136.477 104.357C136.462 104.4 136.41 104.441 136.323 104.482C136.265 104.509 136.216 104.479 136.175 104.392C136.135 104.305 136.093 104.254 136.051 104.238C136.043 104.524 136.067 104.69 136.123 104.734L136.428 104.592L136.521 104.337ZM133.723 103.679L133.621 103.462L133.491 103.523L133.592 103.74L133.723 103.679ZM142.926 106.703C142.808 106.829 142.773 107.057 142.821 107.388C142.852 107.303 142.926 107.233 143.042 107.179C142.933 106.947 142.895 106.788 142.926 106.703ZM136.555 105.432L136.332 104.953L136.201 105.014L136.424 105.493L136.555 105.432ZM133.775 104.133C133.771 104.276 133.791 104.585 133.836 105.059C134.078 105.123 134.151 105.053 134.056 104.85C134.016 104.763 133.954 104.668 133.871 104.565C133.793 104.248 133.762 104.104 133.775 104.133ZM136.83 106.363C136.817 106.334 136.775 106.282 136.706 106.209C136.636 106.135 136.594 106.084 136.581 106.055L136.845 106.621C136.791 106.505 136.786 106.419 136.83 106.363ZM144.162 109.465L144.054 109.462L144.048 109.677L144.156 109.68L144.162 109.465ZM143.076 109.071L142.948 109.025L142.722 109.448L142.849 109.495L143.076 109.071ZM137.408 106.466C137.379 106.48 137.329 106.486 137.257 106.484C137.304 106.356 137.293 106.22 137.226 106.075L136.947 106.841C136.862 106.81 136.79 106.808 136.732 106.835C137.061 107.388 137.36 107.955 137.631 108.536C137.647 108.493 137.659 108.293 137.669 107.935C137.756 107.895 137.827 107.932 137.881 108.048C137.854 107.99 137.707 107.865 137.44 107.671C137.556 107.617 137.641 107.648 137.695 107.764C137.477 106.841 137.381 106.408 137.408 106.466ZM135.035 103.65L134.695 104.285C134.805 104.446 134.906 104.699 134.997 105.046C134.996 105.576 135.051 105.921 135.162 106.082C135.111 106.353 135.154 106.633 135.289 106.924C135.316 106.982 135.686 107.357 136.398 108.05C136.396 108.122 136.404 108.215 136.422 108.33C136.44 108.445 136.456 108.518 136.47 108.547C136.578 108.779 136.744 109.02 136.966 109.269C137.105 109.417 137.344 109.588 137.683 109.783C137.157 109.11 136.921 108.831 136.975 108.947C137.002 109.005 137.02 108.855 137.03 108.497C136.678 108.273 136.509 108.175 136.522 108.204C136.551 108.191 136.651 108.215 136.821 108.277C136.794 108.219 136.797 108.111 136.83 107.955C136.602 107.92 136.476 107.802 136.453 107.6C136.389 107.312 136.371 107.197 136.398 107.255C136.284 107.238 136.213 107.2 136.186 107.142C135.658 106.01 135.315 105.198 135.156 104.706C135.149 104.462 135.108 104.11 135.035 103.65ZM138.273 107.866L138.131 107.561C137.928 107.656 137.873 107.805 137.968 108.008L138.273 107.866ZM134.199 105.154C134.14 105.181 134.054 105.185 133.94 105.168C133.954 105.197 133.948 105.279 133.923 105.415C133.897 105.55 133.892 105.632 133.905 105.661C134.091 106.211 134.326 106.791 134.61 107.4C134.624 107.429 134.733 107.626 134.938 107.99C135.143 108.353 135.279 108.608 135.347 108.753C135.051 108.043 134.636 106.964 134.103 105.516C134.134 105.431 134.166 105.31 134.199 105.154ZM144.295 110.095C144.221 110.164 144.147 110.27 144.071 110.411L144.254 110.803C144.24 110.774 144.321 110.719 144.495 110.638C144.468 110.58 144.442 110.486 144.416 110.356L144.295 110.095ZM137.422 108.314L137.112 107.876L136.981 107.937L137.292 108.375L137.422 108.314ZM152.023 114.388L151.892 114.449L151.797 114.016L151.927 113.955L152.023 114.388ZM143.45 110.328L142.797 110.633C142.706 110.817 142.563 111.042 142.37 111.309L143.29 111.463L143.682 111.281C143.603 111.035 143.525 110.717 143.45 110.328ZM146.989 116.894L146.798 116.824L146.795 116.931L146.943 117.021L146.989 116.894ZM147.073 117.757L146.966 117.754L146.931 117.452L147.062 117.391L147.073 117.757ZM148.895 118.709L148.733 118.36L148.864 118.299L149.026 118.648L148.895 118.709ZM148.529 119.517C148.499 119.602 148.454 119.658 148.396 119.686C148.39 119.9 148.393 120.058 148.404 120.159C148.588 120.25 148.709 120.282 148.767 120.255C148.781 120.284 148.764 120.362 148.718 120.49C148.758 120.577 148.851 120.586 148.996 120.519L149.075 120.8C149.088 120.829 148.96 120.819 148.689 120.768C147.948 119.559 147.51 118.809 147.375 118.518C147.348 118.46 147.321 118.367 147.296 118.237C147.271 118.107 147.245 118.013 147.218 117.955C147.189 117.969 147.267 117.985 147.453 118.005L147.61 117.773C147.658 118.103 147.702 118.348 147.74 118.507C147.738 118.579 147.788 118.609 147.888 118.597C147.83 118.624 147.828 118.696 147.882 118.812C147.991 119.044 148.094 119.19 148.193 119.25C148.292 119.31 148.404 119.399 148.529 119.517ZM148.378 121.125C148.206 121.135 148.086 121.067 148.018 120.922C147.891 120.875 147.812 120.859 147.783 120.872C147.793 121.044 147.825 121.189 147.879 121.305C147.825 121.189 147.718 121.017 147.56 120.791C147.401 120.564 147.308 120.422 147.281 120.364C147.308 120.422 147.327 120.272 147.336 119.914C147.338 119.843 147.245 119.604 147.055 119.197C147.125 119.271 147.268 119.54 147.484 120.004C147.701 120.469 147.999 120.842 148.378 121.125ZM137.509 107.48L137.379 107.541L137.115 106.974L137.245 106.914L137.509 107.48Z" fill="url(#paint5_linear_605_29031)"/>
<path fill-rule="evenodd" clip-rule="evenodd" d="M130.934 116.445L130.793 116.533L130.616 116.25L130.757 116.162L130.934 116.445ZM114.027 113.48L113.894 113.661L113.85 113.59L113.925 113.396L114.027 113.48ZM131.682 117.798L131.54 117.886L131.429 117.709L131.571 117.621L131.682 117.798ZM111.01 120.779L111.05 121L110.921 121.031L110.917 120.788L111.01 120.779ZM111.315 121.819L111.341 122.098L111.191 122.093L111.187 121.85L111.315 121.819ZM111.262 122.44L111.049 122.573L110.983 122.466L111.195 122.334L111.262 122.44ZM129.802 114.397C129.743 114.302 129.737 114.372 129.785 114.605C129.838 114.637 129.947 114.864 130.112 115.286C130.109 115.386 130.13 115.471 130.174 115.542C129.982 115.236 129.67 114.84 129.236 114.357C129.168 114.301 129.089 114.252 128.997 114.211C127.865 112.819 126.397 111.834 124.593 111.256L124.526 111.544C124.588 111.538 124.669 111.536 124.77 111.539C125.377 111.881 125.996 112.216 126.627 112.543C127.258 112.871 127.742 113.224 128.078 113.605C128.325 113.844 129.036 114.745 130.209 116.307C130.471 116.307 130.647 116.378 130.735 116.52C130.75 116.543 130.833 116.754 130.983 117.152C131.133 117.55 131.256 117.851 131.35 118.054C131.388 118.063 131.441 118.096 131.509 118.152C131.845 118.794 132.332 119.835 132.968 121.274C133.517 122.572 133.863 123.651 134.007 124.512C134.034 124.659 134.146 124.786 134.343 124.892C134.653 126.175 134.678 127.815 134.418 129.814C134.333 130.622 134.297 131.3 134.312 131.849L133.807 133.64C133.811 132.49 133.84 131.225 133.896 129.845L133.724 129.806C133.715 129.844 133.747 129.922 133.821 130.04C133.706 130.013 133.625 130.015 133.578 130.044C133.601 130.03 133.615 129.972 133.618 129.872C133.621 129.772 133.638 129.695 133.671 129.642L133.37 129.239C133.346 129.254 133.236 129.471 133.038 129.89C133.139 129.892 133.301 129.89 133.525 129.881C133.389 130.031 133.22 130.285 133.016 130.641C132.795 131.862 132.544 132.904 132.264 133.768C132.214 133.898 132.075 134.148 131.848 134.52C131.718 134.732 131.679 135.036 131.729 135.431C131.708 135.345 131.674 135.186 131.627 134.953C131.565 134.959 131.416 135.036 131.18 135.183C131.11 135.227 131.048 135.365 130.994 135.595L131.061 135.307C131.087 135.192 131.033 135.079 130.897 134.967C130.865 135.02 130.804 135.107 130.716 135.227C130.692 135.505 130.562 136.504 130.326 138.226C130.35 138.211 130.377 138.227 130.406 138.275C130.447 138.446 130.344 138.805 130.096 139.354C130.126 139.138 130.204 138.844 130.331 138.469C130.34 138.431 130.306 138.403 130.229 138.385C130.043 138.665 129.909 138.897 129.827 139.079C129.328 140.014 128.918 140.828 128.597 141.521C128.65 141.553 128.713 141.628 128.787 141.746C128.716 141.79 128.588 141.953 128.402 142.233C128.216 142.513 128.088 142.675 128.017 142.719C127.97 142.749 127.92 142.747 127.867 142.715C127.814 142.682 127.752 142.688 127.681 142.732C127.398 142.909 127.226 143.132 127.164 143.4C127.311 143.374 127.444 143.324 127.562 143.25C127.491 143.294 127.364 143.406 127.181 143.586L127.469 143.652C127.658 143.534 127.88 143.444 128.137 143.383L127.252 143.935C127.125 143.785 126.974 143.699 126.797 143.679C126.652 143.867 126.416 144.015 126.089 144.121C126.065 144.136 126.015 144.2 125.939 144.313C125.862 144.427 125.8 144.498 125.753 144.528C125.706 144.557 125.54 144.554 125.255 144.519C124.971 144.484 124.755 144.479 124.607 144.506C124.038 144.697 123.777 144.778 123.824 144.749C123.777 144.778 123.717 144.865 123.643 145.01C123.569 145.154 123.497 145.249 123.426 145.293C123.356 145.337 123.216 145.31 123.006 145.211C122.797 145.112 122.615 145.07 122.46 145.085C122.305 145.099 122.066 145.11 121.741 145.116C121.405 144.998 120.832 144.421 120.021 143.386C119.947 143.268 119.529 142.94 118.765 142.4C118.706 142.306 118.613 142.183 118.487 142.033C118.198 141.885 117.833 141.63 117.392 141.265C116.951 140.901 116.638 140.597 116.452 140.352C115.88 139.594 115.513 139.086 115.351 138.826C115.248 138.661 114.676 137.51 113.636 135.372C113.615 135.286 113.581 135.258 113.534 135.288C113.531 135.126 113.501 134.947 113.445 134.753C113.36 134.511 113.227 134.43 113.047 134.509C113.195 134.22 113.053 133.653 112.623 132.807C112.579 132.736 112.514 132.58 112.428 132.338C112.343 132.096 112.271 131.928 112.212 131.834C112.227 131.857 112.28 131.89 112.371 131.931L112.437 131.643C112.175 131.643 111.973 131.688 111.831 131.776C111.581 130.325 111.428 128.716 111.372 126.946C111.348 126.436 111.349 125.649 111.372 124.585C111.419 124.293 111.468 123.688 111.518 122.771C111.574 122.704 111.617 122.562 111.647 122.347C111.676 122.132 111.769 121.729 111.925 121.14C111.981 121.072 112.054 120.977 112.142 120.857C112.455 119.94 112.925 118.514 113.553 116.58C113.562 116.542 113.556 116.439 113.533 116.273C113.511 116.106 113.536 116.001 113.606 115.956C113.654 115.927 113.679 115.928 113.682 115.959C113.685 115.99 113.721 115.983 113.792 115.939C113.957 115.835 113.935 115.563 113.724 115.12C113.513 114.678 113.526 114.383 113.761 114.236C113.809 114.206 113.875 114.181 113.96 114.161C114.046 114.14 114.124 114.108 114.195 114.063C114.266 114.019 114.297 114.016 114.288 114.055C114.27 114.131 114.28 114.174 114.319 114.183L114.412 113.387C114.468 113.319 114.535 113.244 114.615 113.161C114.718 112.539 114.994 112.088 115.442 111.808C115.489 111.779 115.587 111.751 115.734 111.724C115.882 111.698 115.991 111.662 116.061 111.618C116.109 111.588 116.219 111.503 116.393 111.361C116.567 111.22 116.678 111.134 116.725 111.105C118.093 110.25 119.918 110.126 122.2 110.734C122.197 110.834 122.286 110.976 122.465 111.159C122.896 111.218 123.525 111.333 124.354 111.504C124.31 111.433 124.286 111.317 124.283 111.154C124.153 111.104 123.948 111.077 123.666 111.072C123.385 111.068 123.214 111.019 123.155 110.924C123.126 110.877 123.113 110.803 123.116 110.703C123.225 110.668 123.377 110.622 123.571 110.566C126.145 111.221 128.045 112.346 129.272 113.941C129.286 113.965 129.367 114.029 129.515 114.133C129.662 114.238 129.758 114.326 129.802 114.397ZM133.587 130.531L133.52 130.818L133.405 130.791L133.472 130.504L133.587 130.531ZM138.146 132.16C138.361 132.452 138.328 132.686 138.044 132.863L137.726 133.062C137.467 133.224 137.256 133.175 137.094 132.916C137.108 132.939 137.114 132.87 137.111 132.708C137.029 132.628 136.877 132.412 136.656 132.058L136.903 131.903C137.363 132.009 137.641 132.033 137.735 131.974C137.782 131.944 137.815 131.891 137.832 131.815L137.859 131.7L138.146 132.16ZM136.576 133.19C136.561 133.166 136.563 133.379 136.58 133.827C136.639 133.921 136.692 134.085 136.74 134.318C136.651 134.963 136.442 135.389 136.111 135.596C136.088 135.61 135.979 135.646 135.784 135.702C135.628 135.767 135.522 135.833 135.466 135.901C135.43 135.792 135.309 135.663 135.101 135.514C134.893 135.365 134.767 135.255 134.723 135.184C134.782 135.279 134.723 134.922 134.546 134.114C134.62 133.97 134.655 133.816 134.652 133.654C134.514 133.642 134.424 133.682 134.382 133.773C134.73 133.228 134.916 132.948 134.94 132.933C135.011 132.889 135.143 132.839 135.338 132.783C135.532 132.727 135.665 132.677 135.736 132.633L135.824 132.774C135.922 132.877 135.958 132.936 135.935 132.951C136.318 133.039 136.532 133.119 136.576 133.19ZM110.709 124.705C110.85 124.878 110.906 125.336 110.877 126.076C110.856 126.515 110.831 126.973 110.801 127.451C110.801 127.713 110.844 128.228 110.93 128.995C111.024 129.46 111.12 130.139 111.217 131.029C111.214 131.129 111.223 131.288 111.243 131.504C111.264 131.721 111.344 132.073 111.484 132.559C111.624 133.046 111.716 133.349 111.758 133.47C111.801 133.591 111.764 133.689 111.646 133.762L111.491 133.515C111.52 133.562 111.358 132.777 111.005 131.162C110.595 129.089 110.496 126.936 110.709 124.705ZM134.528 135.502L134.457 135.546L134.241 135.436L134.325 135.334L134.528 135.502ZM110.745 121.14C110.762 121.326 110.765 121.619 110.753 122.02C110.591 122.81 110.445 123.968 110.315 125.492C110.315 125.754 110.292 126.032 110.244 126.323C110.135 126.884 110.113 127.504 110.178 128.185C110.254 128.728 110.319 129.278 110.372 129.835C110.508 131.784 110.978 133.507 111.783 135.005C111.965 135.35 112.242 135.924 112.612 136.726C112.982 137.528 113.181 137.952 113.211 138C113.24 138.047 113.42 138.23 113.75 138.548C114.081 138.866 114.268 139.061 114.312 139.132C114.415 139.297 114.468 139.42 114.469 139.501C114.47 139.582 114.458 139.68 114.431 139.795C114.54 140.022 114.678 140.215 114.843 140.375C114.751 140.333 114.601 140.198 114.392 139.968C114.377 139.944 114.234 139.951 113.963 139.99C113.511 139.583 113.227 139.285 113.109 139.096C113.242 139.309 112.86 138.514 111.964 136.712C111.796 136.391 111.536 135.766 111.186 134.837C111.088 134.734 110.981 134.588 110.863 134.399C110.164 132.441 109.774 129.848 109.692 126.62C109.709 126.281 109.77 125.8 109.873 125.178C110.077 124.296 110.367 122.95 110.745 121.14ZM129.937 139.651L129.835 139.961L129.698 139.899L129.8 139.589L129.937 139.651ZM117.514 142.444C117.437 142.426 117.374 142.482 117.323 142.612C117.521 142.718 117.664 142.842 117.752 142.984C117.614 142.972 117.204 142.605 116.523 141.882C116.511 142.021 116.393 142.094 116.169 142.103C115.963 141.773 115.613 141.319 115.121 140.741C115.239 140.667 115.336 140.639 115.413 140.657C115.46 140.628 115.485 140.563 115.488 140.462C115.444 140.392 115.355 140.275 115.221 140.113C115.087 139.951 114.99 139.823 114.931 139.728C113.811 137.935 113.248 136.877 113.242 136.553C115.055 139.454 116.383 141.396 117.226 142.378C117.433 142.445 117.528 142.468 117.514 142.444ZM119.626 116.377C119.204 116.28 118.97 116.246 118.922 116.276L118.569 116.497C118.778 116.464 119.13 116.425 119.626 116.377ZM115.831 119.045C115.689 119.396 115.505 119.889 115.278 120.523C115.269 120.561 115.282 120.635 115.318 120.744C115.353 120.853 115.335 120.929 115.264 120.974L115.521 120.912C115.471 120.517 115.55 120.172 115.76 119.877C115.969 119.582 115.993 119.305 115.831 119.045ZM115.402 121.427L115.238 121.48C115.2 121.733 115.154 122.106 115.101 122.599L115.247 121.966C115.309 121.698 115.36 121.518 115.402 121.427ZM133.569 127.59C133.507 127.595 133.441 127.621 133.37 127.665C133.299 127.709 133.248 127.758 133.215 127.811C133.292 127.828 133.364 127.865 133.432 127.921C133.441 127.883 133.464 127.828 133.501 127.755C133.538 127.683 133.56 127.628 133.569 127.59ZM114.879 123.822L114.729 123.817L114.742 124.153L114.857 124.18L114.879 123.822ZM114.751 124.245L114.645 124.311L114.707 124.568L114.857 124.572L114.751 124.245ZM114.499 125.337C114.449 125.467 114.387 125.604 114.313 125.748L114.534 126.102C114.614 125.757 114.602 125.502 114.499 125.337ZM114.534 126.103C114.369 126.469 114.299 126.725 114.326 126.873C114.403 126.89 114.484 126.889 114.569 126.868C114.501 126.55 114.49 126.295 114.534 126.103ZM124.318 119.794C123.802 118.968 123.015 118.181 121.956 117.432C121.7 117.231 121.367 117.013 120.957 116.777C120.677 116.854 120.304 116.939 119.838 117.033C119.714 117.045 119.438 117.037 119.011 117.009C118.583 116.981 118.346 116.982 118.299 117.011C118.181 117.085 118.06 117.39 117.936 117.927C117.853 117.847 117.733 117.759 117.573 117.661C117.544 118.139 117.573 118.448 117.662 118.59C117.585 118.572 117.523 118.578 117.476 118.608C117.169 118.799 116.742 120.083 116.193 122.46C116.113 122.805 116.001 123.465 115.857 124.441C115.656 126.01 115.722 127.559 116.055 129.089C116.182 129.502 116.328 130.05 116.493 130.734L116.67 131.018C116.664 131.218 116.688 131.466 116.741 131.761C116.959 132.477 117.149 132.965 117.311 133.225C117.332 133.31 117.346 133.465 117.355 133.689C117.278 133.671 117.211 133.615 117.152 133.521L117.532 134.366C117.556 134.351 117.584 134.317 117.616 134.264C117.648 134.211 117.7 134.162 117.771 134.118C117.794 134.103 117.864 134.109 117.979 134.136L119.239 136.152C119.304 136.309 119.267 136.643 119.128 137.156C118.854 137.033 118.606 136.728 118.385 136.243C118.164 135.758 117.977 135.498 117.824 135.462C118.236 136.648 118.428 137.217 118.399 137.17C118.472 137.288 118.634 137.416 118.885 137.554C119.044 137.652 119.121 137.801 119.115 138.001L119.805 138.16L119.756 138.24L120.159 138.333C120.68 138.696 121.392 139.284 122.295 140.098C122.787 140.676 123.234 140.839 123.635 140.589C123.682 140.559 123.935 140.335 124.395 139.917C124.855 139.498 125.109 139.274 125.156 139.244C125.227 139.2 125.315 139.17 125.419 139.154L125.576 139.13C125.447 139.079 125.345 138.995 125.271 138.877C124.976 138.406 125.112 137.993 125.678 137.639C125.725 137.61 125.798 137.581 125.895 137.553C125.992 137.525 126.064 137.496 126.112 137.467C126.135 137.452 126.536 136.808 127.315 135.534L127.16 135.286C127.113 135.316 126.99 135.54 126.793 135.959L126.505 135.892C126.614 135.594 126.914 134.866 127.403 133.708C127.297 133.38 127.252 133.228 127.266 133.252C127.148 133.326 127.07 133.358 127.032 133.349C127.041 133.311 127.128 133.24 127.293 133.137C127.175 132.948 127.06 132.659 126.948 132.27C126.948 131.745 127.035 131.15 127.209 130.483C127.091 130.557 127.013 130.59 126.975 130.581C127.04 130.475 127.125 130.323 127.231 130.125C127.181 127.631 126.862 125.781 126.272 124.575C126.257 124.551 126.017 123.93 125.551 122.713C125.106 121.58 124.832 120.932 124.729 120.767C124.699 120.719 124.608 120.678 124.455 120.643C124.301 120.607 124.21 120.566 124.181 120.519C124.048 120.307 124.094 120.065 124.318 119.794ZM128.677 136.453L128.575 136.369L128.5 136.564L128.566 136.67L128.677 136.453ZM117.625 134.751L117.47 134.503L117.329 134.591L117.483 134.839L117.625 134.751ZM128.509 136.656L128.261 136.811C127.642 137.92 127.143 138.592 126.766 138.828C126.695 138.872 126.651 138.867 126.633 138.812C126.616 138.758 126.583 138.745 126.536 138.775C126.489 138.804 126.325 139.054 126.045 139.524C125.765 139.994 125.601 140.244 125.554 140.274L124.705 140.804L124.948 141.194L125.293 141.273C125.364 141.229 125.451 141.158 125.554 141.061C125.657 140.964 125.732 140.9 125.78 140.871C126.11 140.665 126.375 140.302 126.576 139.783L126.629 140.34C126.652 140.326 126.779 140.345 127.009 140.398C127.239 140.188 127.49 139.802 127.761 139.239C127.968 138.782 128.162 138.333 128.345 137.89C128.324 137.805 128.308 137.7 128.296 137.576C128.403 137.379 128.473 137.072 128.509 136.656ZM120.048 138.548L119.982 138.442L119.805 138.552L119.871 138.658L120.048 138.548ZM121.68 140.923L121.388 140.614L121.246 140.702L121.573 140.99L121.68 140.923ZM115.877 141.008L115.59 140.548L115.484 140.615L115.771 141.075L115.877 141.008ZM117.294 122.41L117.175 122.927L117.06 122.901L117.179 122.383L117.294 122.41ZM117.091 123.03L116.971 123.547L116.856 123.521L116.976 123.003L117.091 123.03ZM125.984 125.687L126.029 126.151L125.936 126.16L125.878 125.753L125.984 125.687ZM116.605 125.002C116.573 125.244 116.552 125.422 116.542 125.537C116.342 125.269 116.3 125.098 116.418 125.024C116.489 124.98 116.532 124.97 116.547 124.993C116.557 125.011 116.577 125.014 116.605 125.002ZM116.609 124.971C116.586 124.961 116.551 124.945 116.502 124.923C116.47 124.714 116.547 124.469 116.732 124.189C116.706 124.304 116.67 124.523 116.626 124.846C116.62 124.889 116.615 124.931 116.609 124.971ZM116.609 124.972C116.63 124.981 116.64 124.985 116.64 124.985C116.627 124.993 116.616 124.999 116.605 125.003C116.607 124.993 116.608 124.982 116.609 124.972ZM116.538 125.688L116.542 125.931L116.449 125.94L116.409 125.719L116.538 125.688ZM116.29 127.416C116.257 127.469 116.278 127.554 116.352 127.672L116.038 127.721C116.156 127.647 116.24 127.545 116.29 127.416ZM116.511 128.95L116.405 129.016L116.294 128.84L116.4 128.773L116.511 128.95ZM126.055 134.992C125.995 135.106 125.939 135.207 125.886 135.294C125.945 135.126 125.998 135.027 126.045 134.997C126.049 134.995 126.052 134.993 126.055 134.992ZM126.055 134.993C126.214 134.685 126.397 134.275 126.603 133.764C126.426 134.531 126.302 134.936 126.231 134.981C126.184 135.01 126.159 135.009 126.156 134.978C126.153 134.949 126.119 134.954 126.055 134.993ZM125.806 136.428C125.939 136.64 125.973 136.799 125.908 136.905L125.519 137.148C125.522 137.048 125.618 136.808 125.806 136.428ZM119.234 137.482L119.128 137.549L118.947 137.416L118.996 137.336L119.234 137.482ZM121.132 137.134C121.264 137.346 121.248 137.504 121.083 137.607C121.036 137.637 120.935 137.634 120.782 137.598C120.756 137.713 120.764 137.806 120.809 137.877C121 138.184 121.441 138.679 122.131 139.363C121.874 139.425 121.671 139.388 121.521 139.252C121.031 138.837 120.573 138.287 120.145 137.603C120.116 137.555 120.069 137.454 120.004 137.297C119.939 137.141 119.877 137.016 119.818 136.921C119.983 136.818 120.051 136.743 120.022 136.696C120.673 136.846 121.043 136.992 121.132 137.134Z" fill="url(#paint6_linear_605_29031)"/>
<path fill-rule="evenodd" clip-rule="evenodd" d="M107.423 95.045C107.284 96.0861 106.742 96.5061 105.796 96.3051L104.733 96.079C103.866 95.8948 103.525 95.3693 103.709 94.5026C103.692 94.5814 103.844 94.4489 104.164 94.1052C104.152 93.7733 104.272 93.0163 104.523 91.8344L105.35 92.0103C106.095 93.1568 106.625 93.7635 106.94 93.8305C107.098 93.864 107.272 93.8187 107.463 93.6946L107.75 93.5085L107.423 95.045Z" fill="url(#paint7_linear_605_29031)"/>
<path fill-rule="evenodd" clip-rule="evenodd" d="M115.181 96.2298C114.849 95.617 114.977 95.1802 115.562 94.9194L116.221 94.626C116.758 94.3869 117.146 94.5359 117.385 95.0728C117.363 95.024 117.334 95.1542 117.296 95.4635C117.432 95.637 117.663 96.0898 117.989 96.822L117.476 97.0502C116.629 96.7253 116.109 96.6063 115.913 96.6932C115.816 96.7367 115.74 96.8289 115.686 96.97L115.604 97.1817L115.181 96.2298Z" fill="url(#paint8_linear_605_29031)"/>
<path fill-rule="evenodd" clip-rule="evenodd" d="M146.478 128.199C145.943 128.815 146.031 129.387 146.743 129.915L147.743 130.785L147.723 130.497C147.71 130.305 147.748 130.158 147.837 130.056C148.015 129.85 148.68 129.708 149.83 129.627L150.298 129.088C149.529 128.42 149.019 128.022 148.77 127.895C148.647 127.518 148.611 127.352 148.662 127.396C148.098 126.906 147.571 126.943 147.08 127.507L146.478 128.199ZM140.874 128.056C141.236 129.091 141.391 129.586 141.339 129.541C141.493 129.675 142.05 129.708 143.009 129.641C142.964 129.693 143.092 129.804 143.393 129.976L143.701 130.243C143.835 130.089 144.109 129.877 144.524 129.608C144.939 129.338 145.213 129.126 145.347 128.972C145.39 128.922 145.611 128.182 146.009 126.752C146.029 126.708 146.042 126.661 146.049 126.61C146.035 126.658 146.022 126.705 146.009 126.752C145.935 126.915 145.766 127.026 145.503 127.082C145.381 126.705 145.354 126.322 145.423 125.931C144.433 124.17 144.04 123.378 144.245 123.557C144.091 123.423 143.718 123.256 143.126 123.057C142.534 122.857 142.158 122.643 141.997 122.413C141.915 122.612 141.714 122.842 141.395 123.106C140.981 123.375 140.751 123.536 140.706 123.587C140.082 124.306 139.897 125.451 140.152 127.023C140.428 127.533 140.669 127.878 140.874 128.056Z" fill="url(#paint9_linear_605_29031)"/>
<path fill-rule="evenodd" clip-rule="evenodd" d="M102.03 134.529C102.041 134.538 102.008 134.433 101.931 134.213C101.887 134.175 101.836 134.102 101.777 133.994C101.723 133.659 101.762 133.416 101.895 133.263C101.905 133.252 101.953 133.218 102.042 133.161C102.109 133.105 102.152 133.056 102.17 133.014C102.204 133.062 102.284 133.108 102.41 133.15C102.535 133.193 102.615 133.228 102.647 133.257C102.604 133.219 102.687 133.387 102.898 133.762C102.883 133.845 102.889 133.926 102.915 134.006C102.986 133.991 103.024 133.958 103.031 133.906C102.941 134.23 102.891 134.397 102.882 134.408C102.853 134.441 102.795 134.486 102.707 134.543C102.618 134.6 102.56 134.646 102.532 134.678L102.466 134.621C102.402 134.585 102.375 134.561 102.385 134.55C102.181 134.565 102.062 134.557 102.03 134.529Z" fill="url(#paint10_linear_605_29031)"/>
<path fill-rule="evenodd" clip-rule="evenodd" d="M102.895 138.23C102.893 138.271 103.072 138.013 103.431 137.454C103.44 137.289 103.515 137.045 103.655 136.723C104.311 136.014 104.928 135.675 105.504 135.705C105.545 135.708 105.707 135.757 105.991 135.855C106.236 135.909 106.421 135.919 106.547 135.884C106.497 136.046 106.535 136.306 106.66 136.664C106.786 137.021 106.846 137.261 106.839 137.385C106.848 137.22 106.616 137.703 106.144 138.834C105.932 138.947 105.759 139.103 105.625 139.302C105.783 139.434 105.926 139.462 106.054 139.386C105.168 139.752 104.704 139.934 104.663 139.932C104.54 139.926 104.336 139.874 104.052 139.777C103.769 139.679 103.565 139.627 103.442 139.621L103.455 139.374C103.424 139.166 103.43 139.063 103.471 139.065C103.081 138.632 102.889 138.354 102.895 138.23Z" fill="url(#paint11_linear_605_29031)"/>
<circle cx="119.526" cy="118.584" r="68.5674" stroke="url(#paint12_linear_605_29031)" stroke-width="7"/>
<path fill-rule="evenodd" clip-rule="evenodd" d="M142.628 260.004C134.695 251.166 140.243 225.592 158.277 211.3C176.311 197.008 189.775 207.031 189.775 207.031L278.042 112.663C282.999 107.363 291.523 107.763 295.963 113.504C299.89 118.583 299.027 125.872 294.021 129.893L203.791 202.363C203.791 202.363 202.87 234.372 189.775 250.615C176.68 266.859 150.562 268.843 142.628 260.004Z" fill="#44556B" fill-opacity="0.299677" style="mix-blend-mode:multiply"/>
<path fill-rule="evenodd" clip-rule="evenodd" d="M141.414 259.895C132.884 251.631 132.782 228.87 149.775 213.355C166.769 197.84 190.116 200.11 190.116 200.11L275.382 101.715C279.413 97.0623 286.501 96.6853 291.003 100.884C295.566 105.139 295.617 112.353 291.114 116.672L196.956 206.984C196.956 206.984 199.721 230.122 187.791 247.239C175.861 264.357 149.945 268.158 141.414 259.895Z" fill="url(#paint13_linear_605_29031)"/>
<mask id="mask0_605_29031" style="mask-type:luminance" maskUnits="userSpaceOnUse" x="135" y="97" width="160" height="168">
<path fill-rule="evenodd" clip-rule="evenodd" d="M141.414 259.895C132.884 251.631 132.782 228.87 149.775 213.355C166.769 197.84 190.116 200.11 190.116 200.11L275.382 101.715C279.413 97.0623 286.501 96.6853 291.003 100.884C295.566 105.139 295.617 112.353 291.114 116.672L196.956 206.984C196.956 206.984 199.721 230.122 187.791 247.239C175.861 264.357 149.945 268.158 141.414 259.895Z" fill="white"/>
</mask>
<g mask="url(#mask0_605_29031)">
<ellipse opacity="0.188406" cx="163.889" cy="248.778" rx="28.3407" ry="32.9677" transform="rotate(-158 163.889 248.778)" fill="white"/>
</g>
<defs>
<filter id="filter0_d_605_29031" x="0" y="0" width="300.477" height="300.477" filterUnits="userSpaceOnUse" color-interpolation-filters="sRGB">
<feFlood flood-opacity="0" result="BackgroundImageFix"/>
<feColorMatrix in="SourceAlpha" type="matrix" values="0 0 0 0 0 0 0 0 0 0 0 0 0 0 0 0 0 0 127 0" result="hardAlpha"/>
<feOffset dx="1" dy="7"/>
<feGaussianBlur stdDeviation="4"/>
<feColorMatrix type="matrix" values="0 0 0 0 0 0 0 0 0 0 0 0 0 0 0 0 0 0 0.158769 0"/>
<feBlend mode="normal" in2="BackgroundImageFix" result="effect1_dropShadow_605_29031"/>
<feBlend mode="normal" in="SourceGraphic" in2="effect1_dropShadow_605_29031" result="shape"/>
</filter>
<linearGradient id="paint0_linear_605_29031" x1="-13.687" y1="125.229" x2="106.374" y2="210.957" gradientUnits="userSpaceOnUse">
<stop stop-color="white"/>
<stop offset="1" stop-color="white"/>
</linearGradient>
<linearGradient id="paint1_linear_605_29031" x1="261.168" y1="197.406" x2="202.446" y2="29.9819" gradientUnits="userSpaceOnUse">
<stop stop-color="#FDFDFD"/>
<stop offset="1" stop-color="#E3EAEF"/>
</linearGradient>
<linearGradient id="paint2_linear_605_29031" x1="213.517" y1="123.741" x2="188.102" y2="123.741" gradientUnits="userSpaceOnUse">
<stop stop-color="white"/>
<stop offset="1" stop-color="#E3E3E3"/>
</linearGradient>
<radialGradient id="paint3_radial_605_29031" cx="0" cy="0" r="1" gradientUnits="userSpaceOnUse" gradientTransform="translate(119.526 118.584) rotate(95.8354) scale(56.5679)">
<stop stop-color="white"/>
<stop offset="1" stop-color="#F0E8D8"/>
</radialGradient>
<linearGradient id="paint4_linear_605_29031" x1="103.302" y1="132.006" x2="81.7649" y2="99.1495" gradientUnits="userSpaceOnUse">
<stop stop-color="#5A573D"/>
<stop offset="1" stop-color="#9F7165"/>
</linearGradient>
<linearGradient id="paint5_linear_605_29031" x1="158.9" y1="115.966" x2="122.9" y2="95.3851" gradientUnits="userSpaceOnUse">
<stop stop-color="#5A573D"/>
<stop offset="1" stop-color="#9F7165"/>
</linearGradient>
<linearGradient id="paint6_linear_605_29031" x1="140.03" y1="133.077" x2="105.39" y2="111.867" gradientUnits="userSpaceOnUse">
<stop stop-color="#5A573D"/>
<stop offset="1" stop-color="#9F7165"/>
</linearGradient>
<linearGradient id="paint7_linear_605_29031" x1="107.002" y1="96.256" x2="105.95" y2="91.2787" gradientUnits="userSpaceOnUse">
<stop stop-color="#5A573D"/>
<stop offset="1" stop-color="#9F7165"/>
</linearGradient>
<linearGradient id="paint8_linear_605_29031" x1="114.934" y1="95.416" x2="117.44" y2="97.6766" gradientUnits="userSpaceOnUse">
<stop stop-color="#5A573D"/>
<stop offset="1" stop-color="#9F7165"/>
</linearGradient>
<linearGradient id="paint9_linear_605_29031" x1="138.816" y1="126.965" x2="150.86" y2="128.353" gradientUnits="userSpaceOnUse">
<stop stop-color="#5A573D"/>
<stop offset="1" stop-color="#9F7165"/>
</linearGradient>
<linearGradient id="paint10_linear_605_29031" x1="101.449" y1="133.943" x2="103.219" y2="134.485" gradientUnits="userSpaceOnUse">
<stop stop-color="#5A573D"/>
<stop offset="1" stop-color="#9F7165"/>
</linearGradient>
<linearGradient id="paint11_linear_605_29031" x1="103.193" y1="135.895" x2="105.083" y2="140.826" gradientUnits="userSpaceOnUse">
<stop stop-color="#5A573D"/>
<stop offset="1" stop-color="#9F7165"/>
</linearGradient>
<linearGradient id="paint12_linear_605_29031" x1="216.012" y1="108.673" x2="99.133" y2="20.8532" gradientUnits="userSpaceOnUse">
<stop stop-color="white"/>
<stop offset="1" stop-color="#F1F2F4"/>
</linearGradient>
<linearGradient id="paint13_linear_605_29031" x1="128.244" y1="204.753" x2="153.364" y2="237.298" gradientUnits="userSpaceOnUse">
<stop stop-color="#939BA1"/>
<stop offset="1" stop-color="#627381"/>
</linearGradient>
</defs>
</svg>
