<svg width="350" height="348" viewBox="0 0 350 348" fill="none" xmlns="http://www.w3.org/2000/svg">
<ellipse cx="125.407" cy="323.043" rx="60.5035" ry="11.8939" fill="#FFD3F8"/>
<ellipse cx="141.955" cy="335.454" rx="60.5035" ry="11.8939" fill="#FFD3F8"/>
<ellipse cx="162.64" cy="324.077" rx="60.5035" ry="11.8939" fill="#FFD3F8"/>
<path fill-rule="evenodd" clip-rule="evenodd" d="M137.115 244.139L248.419 176.31C251.431 174.475 255.172 177.153 254.405 180.595L227.827 299.95C227.827 299.95 212.559 277.912 188.636 263.193C164.712 248.474 137.115 244.139 137.115 244.139Z" fill="url(#paint0_linear_605_29811)"/>
<path fill-rule="evenodd" clip-rule="evenodd" d="M137.115 244.139L248.419 176.31C251.431 174.475 255.172 177.153 254.405 180.595L227.827 299.95C227.827 299.95 212.559 277.912 188.636 263.193C164.712 248.474 137.115 244.139 137.115 244.139Z" fill="url(#paint1_linear_605_29811)" style="mix-blend-mode:overlay"/>
<mask id="mask0_605_29811" style="mask-type:luminance" maskUnits="userSpaceOnUse" x="137" y="175" width="118" height="125">
<path fill-rule="evenodd" clip-rule="evenodd" d="M137.115 244.139L248.419 176.31C251.431 174.475 255.172 177.153 254.405 180.595L227.827 299.95C227.827 299.95 212.559 277.912 188.636 263.193C164.712 248.474 137.115 244.139 137.115 244.139Z" fill="white"/>
<path fill-rule="evenodd" clip-rule="evenodd" d="M137.115 244.139L248.419 176.31C251.431 174.475 255.172 177.153 254.405 180.595L227.827 299.95C227.827 299.95 212.559 277.912 188.636 263.193C164.712 248.474 137.115 244.139 137.115 244.139Z" stroke="white"/>
</mask>
<g mask="url(#mask0_605_29811)">
<g style="mix-blend-mode:soft-light">
<path d="M182.808 214.966C182.808 214.966 221.416 209.658 240.987 251.031" stroke="#8C4545" stroke-width="3"/>
</g>
<g style="mix-blend-mode:soft-light">
<path d="M166.26 226.344C166.26 226.344 214.106 221.962 237.624 277.022" stroke="#8C4545" stroke-width="3"/>
</g>
<g style="mix-blend-mode:soft-light">
<path d="M195.219 202.554C195.219 202.554 234.333 193.79 253.398 238.62" stroke="#8C4545" stroke-width="3"/>
</g>
<g style="mix-blend-mode:soft-light">
<path d="M203.873 191.34C203.873 191.34 248.72 181.481 262.178 226.076" stroke="#8C4545" stroke-width="3"/>
</g>
<g style="mix-blend-mode:soft-light">
<path d="M228.963 181.802C228.963 181.802 255.775 176.248 261.025 203.521" stroke="#8C4545" stroke-width="3"/>
</g>
<g style="mix-blend-mode:soft-light">
<path d="M195.026 265.852C195.026 264.221 195.863 228.95 175.569 208.759" stroke="#8C4545" stroke-width="3"/>
</g>
<g style="mix-blend-mode:soft-light">
<path d="M216.745 263.783C216.745 262.153 217.582 226.881 197.288 206.69" stroke="#8C4545" stroke-width="3"/>
</g>
<g style="mix-blend-mode:soft-light">
<path d="M237.618 263.783C237.618 261.887 238.64 220.865 213.836 197.382" stroke="#8C4545" stroke-width="3"/>
</g>
<g style="mix-blend-mode:soft-light">
<path d="M251.063 247.235C251.063 245.339 252.085 204.317 227.281 180.834" stroke="#8C4545" stroke-width="3"/>
</g>
</g>
<circle cx="162.641" cy="272.365" r="38.7843" fill="url(#paint2_linear_605_29811)"/>
<ellipse cx="162.94" cy="296.708" rx="49.9723" ry="30.9899" fill="url(#paint3_linear_605_29811)"/>
<circle cx="191.6" cy="286.845" r="38.7843" fill="url(#paint4_linear_605_29811)"/>
<path d="M164.533 296.736C166.66 301.784 169.7 302.936 172.724 303.853" stroke="#ADFFFC" stroke-width="4" stroke-linecap="round" stroke-linejoin="round"/>
<path d="M106.089 333.66C101.354 331.297 98.9464 332.132 96.7162 333.121" stroke="#ADFFFC" stroke-width="4" stroke-linecap="round" stroke-linejoin="round"/>
<path d="M142.411 270.587C145.809 270.418 147.127 268.888 148.305 267.317" stroke="white" stroke-width="4" stroke-linecap="round" stroke-linejoin="round"/>
<path d="M161.405 324.958C162.25 325.194 163.367 325.068 164.475 324.926" stroke="white" stroke-width="4" stroke-linecap="round" stroke-linejoin="round"/>
<path d="M154.611 244.898C153.165 247.978 153.897 249.861 154.731 251.638" stroke="#C4A2FF" stroke-width="4" stroke-linecap="round" stroke-linejoin="round"/>
<path d="M179.442 335.799C178.228 335.506 177.826 335.708 177.476 335.932" stroke="#C4A2FF" stroke-width="4" stroke-linecap="round" stroke-linejoin="round"/>
<path d="M133.995 298.328C128.911 300.366 127.706 303.386 126.737 306.394" stroke="#FFA6EA" stroke-width="4" stroke-linecap="round" stroke-linejoin="round"/>
<path d="M187.588 273.551C184.922 275.826 184.808 277.509 184.834 279.124" stroke="#D6FFA9" stroke-width="4" stroke-linecap="round" stroke-linejoin="round"/>
<path d="M104.781 318.245C107.226 319.16 108.364 318.627 109.407 318.027" stroke="#D6FFA9" stroke-width="4" stroke-linecap="round" stroke-linejoin="round"/>
<path d="M212.833 288.206C209.202 286.473 207.384 287.139 205.702 287.92" stroke="#FFAFAF" stroke-width="4" stroke-linecap="round" stroke-linejoin="round"/>
<path d="M132.449 334.072C133.97 335.299 136.09 335.517 138.197 335.676" stroke="#FFAFAF" stroke-width="4" stroke-linecap="round" stroke-linejoin="round"/>
<rect x="137.301" y="271.85" width="8.27399" height="22.7535" rx="4.13699" fill="#746CA0"/>
<rect x="162.123" y="271.85" width="8.27399" height="22.7535" rx="4.13699" fill="#746CA0"/>
<path d="M146.093 307.531C146.093 307.531 150.717 304.429 155.38 304.429C160.042 304.429 164.73 307.531 164.73 307.531" stroke="#746CA0" stroke-width="3" stroke-linecap="round" stroke-linejoin="round"/>
<path opacity="0.5" d="M280.406 221.474C314.521 152.48 260.655 134.443 260.655 134.443C223.885 131.379 209.126 157.043 190.795 159.948C155.718 165.508 125.679 136.653 131.83 108.421C134.152 97.7641 162.739 84.5667 170.138 133.342C172.745 150.525 168.853 169.132 139.544 177.925C97.3274 190.59 73.9661 141.673 71.7898 140.23" stroke="url(#paint5_linear_605_29811)" stroke-width="4" stroke-linecap="round" stroke-linejoin="round" stroke-dasharray="4 10"/>
<ellipse opacity="0.4" cx="51.3389" cy="132.2" rx="8.27765" ry="10.8965" transform="rotate(-120 51.3389 132.2)" fill="#CED8E5"/>
<ellipse opacity="0.4" cx="76.391" cy="117.098" rx="8.27765" ry="10.8965" transform="rotate(60 76.391 117.098)" fill="#CED8E5"/>
<path d="M60.7209 130.843C57.264 129.917 55.2126 126.364 56.1388 122.907L58.1622 115.355L65.6946 117.374C69.1515 118.3 71.203 121.853 70.2767 125.31L68.2533 132.861L60.7209 130.843Z" fill="#A8B7C5"/>
<mask id="mask1_605_29811" style="mask-type:luminance" maskUnits="userSpaceOnUse" x="55" y="115" width="16" height="18">
<path d="M60.7209 130.843C57.264 129.917 55.2126 126.364 56.1388 122.907L58.1622 115.355L65.6946 117.374C69.1515 118.3 71.203 121.853 70.2767 125.31L68.2533 132.861L60.7209 130.843Z" fill="white"/>
</mask>
<g mask="url(#mask1_605_29811)">
<rect x="57.649" y="132.612" width="2.25754" height="16.5326" transform="rotate(-120 57.649 132.612)" fill="#DDE5F2"/>
<path fill-rule="evenodd" clip-rule="evenodd" d="M55.1886 127.278L54.0595 125.323L68.3765 117.059L69.5056 119.015L55.1886 127.278Z" fill="#DDE5F2"/>
</g>
<path d="M56.6938 107.013L56.8524 101.37" stroke="#8696C5" stroke-width="0.72"/>
<path d="M53.9319 108.611L49.2267 105.163" stroke="#8696C5" stroke-width="0.72"/>
<ellipse cx="57.2948" cy="112.785" rx="6.02011" ry="6.01185" transform="rotate(-75 57.2948 112.785)" fill="#8B9AA8"/>
<defs>
<linearGradient id="paint0_linear_605_29811" x1="161.642" y1="218.648" x2="226.511" y2="289.588" gradientUnits="userSpaceOnUse">
<stop stop-color="#FFF2D2"/>
<stop offset="1" stop-color="#FFE0A6"/>
</linearGradient>
<linearGradient id="paint1_linear_605_29811" x1="195.375" y1="197.678" x2="165.288" y2="230.535" gradientUnits="userSpaceOnUse">
<stop stop-opacity="0.01"/>
<stop offset="1"/>
</linearGradient>
<linearGradient id="paint2_linear_605_29811" x1="90.4019" y1="289.463" x2="147.806" y2="330.058" gradientUnits="userSpaceOnUse">
<stop stop-color="#FFEFFD"/>
<stop offset="1" stop-color="#FFDBF9"/>
</linearGradient>
<linearGradient id="paint3_linear_605_29811" x1="73.2996" y1="300.923" x2="114.178" y2="355.088" gradientUnits="userSpaceOnUse">
<stop stop-color="#FFEFFD"/>
<stop offset="1" stop-color="#FFDBF9"/>
</linearGradient>
<linearGradient id="paint4_linear_605_29811" x1="126.077" y1="284.454" x2="174.05" y2="328.332" gradientUnits="userSpaceOnUse">
<stop stop-color="#FFEFFD"/>
<stop offset="1" stop-color="#FFDBF9"/>
</linearGradient>
<linearGradient id="paint5_linear_605_29811" x1="290.201" y1="48.0459" x2="103.785" y2="25.1791" gradientUnits="userSpaceOnUse">
<stop stop-color="#95ABC2" stop-opacity="0.244084"/>
<stop offset="1" stop-color="#5C738E"/>
</linearGradient>
</defs>
</svg>
