<svg width="346" height="274" viewBox="0 0 346 274" fill="none" xmlns="http://www.w3.org/2000/svg">
<path fill-rule="evenodd" clip-rule="evenodd" d="M321.276 113.959C323.486 109.227 327.748 105.774 332.834 104.593L339.014 103.158L308.567 193.744L293.5 261.669C292.078 268.079 284.822 271.244 279.156 267.925C275.075 265.535 273.319 260.546 275.003 256.126L300.649 188.801L294.4 183.062C292.151 180.996 291.501 177.711 292.793 174.944L321.276 113.959Z" fill="#FF7D4F" fill-opacity="0.2" style="mix-blend-mode:multiply"/>
<path fill-rule="evenodd" clip-rule="evenodd" d="M320.433 112.294C323.255 106.995 328.663 103.576 334.661 103.302L337.972 103.151L306.933 188.428L283.554 263.145C282.082 267.851 276.978 270.374 272.345 268.688C267.749 267.015 265.454 261.865 267.284 257.329L296.582 184.707L290.642 178.648C288.504 176.468 288.026 173.153 289.462 170.458L320.433 112.294Z" fill="white"/>
<mask id="mask0_605_30077" style="mask-type:luminance" maskUnits="userSpaceOnUse" x="266" y="103" width="72" height="167">
<path fill-rule="evenodd" clip-rule="evenodd" d="M320.433 112.294C323.255 106.995 328.663 103.576 334.661 103.302L337.972 103.151L306.933 188.428L283.554 263.145C282.082 267.851 276.978 270.374 272.345 268.688C267.749 267.015 265.454 261.865 267.284 257.329L296.582 184.707L290.642 178.648C288.504 176.468 288.026 173.153 289.462 170.458L320.433 112.294Z" fill="white"/>
</mask>
<g mask="url(#mask0_605_30077)">
<path opacity="0.2" fill-rule="evenodd" clip-rule="evenodd" d="M312.011 91.4121L342.275 93.8055L287.244 183.305L269.336 175.167L312.011 91.4121Z" fill="#D8D8D8"/>
</g>
<path fill-rule="evenodd" clip-rule="evenodd" d="M84.0793 12.5481C92.7834 16.0808 97.7064 36.1844 89.8416 52.5969C81.9767 69.0094 61.0392 72.4076 61.0392 72.4076L38.4354 163.611C37.023 169.31 30.7034 172.243 25.439 169.643C21.0763 167.488 19.1477 162.307 21.0395 157.824L59.0253 67.8053C59.0253 67.8053 50.142 51.6566 53.819 35.5693C57.496 19.482 75.3753 9.01537 84.0793 12.5481Z" fill="#FF7D4F" fill-opacity="0.2" style="mix-blend-mode:multiply"/>
<path fill-rule="evenodd" clip-rule="evenodd" d="M81.0793 7.54811C89.7834 11.0808 96.6016 27.7419 88.7368 44.1544C80.872 60.5669 63.0778 65.8197 63.0778 65.8197L29.7029 163.239C28.1249 167.846 23.0388 170.222 18.4931 168.477C13.8864 166.709 11.7116 161.433 13.7339 156.932L56.0253 62.8053C56.0253 62.8053 47.142 46.6566 50.819 30.5693C54.496 14.482 72.3753 4.01537 81.0793 7.54811Z" fill="#F4F9FF"/>
<mask id="mask1_605_30077" style="mask-type:luminance" maskUnits="userSpaceOnUse" x="12" y="6" width="81" height="164">
<path fill-rule="evenodd" clip-rule="evenodd" d="M81.0793 7.54811C89.7834 11.0808 96.6016 27.7419 88.7368 44.1544C80.872 60.5669 63.0778 65.8197 63.0778 65.8197L29.7029 163.239C28.1249 167.846 23.0388 170.222 18.4931 168.477C13.8864 166.709 11.7116 161.433 13.7339 156.932L56.0253 62.8053C56.0253 62.8053 47.142 46.6566 50.819 30.5693C54.496 14.482 72.3753 4.01537 81.0793 7.54811Z" fill="white"/>
</mask>
<g mask="url(#mask1_605_30077)">
<ellipse cx="76.2041" cy="45.722" rx="22.7281" ry="26.4388" fill="white"/>
</g>
<circle cx="193.976" cy="146.784" r="103.5" fill="#FF7D4F" fill-opacity="0.2" style="mix-blend-mode:multiply"/>
<g filter="url(#filter0_d_605_30077)">
<circle cx="177.976" cy="122.784" r="103.5" fill="white"/>
</g>
<mask id="mask2_605_30077" style="mask-type:luminance" maskUnits="userSpaceOnUse" x="74" y="19" width="208" height="208">
<circle cx="177.976" cy="122.784" r="103.5" fill="white"/>
</mask>
<g mask="url(#mask2_605_30077)">
<circle cx="135.976" cy="59.7842" r="103.5" fill="#F4F9FF"/>
</g>
<circle cx="177.976" cy="122.784" r="68.5" fill="#F4E78C"/>
<g filter="url(#filter1_d_605_30077)">
<path d="M172.214 48.46C180.575 56.3761 183.735 69.6345 170.225 80.4239C156.716 91.2133 121.339 109.899 115.001 117.479C108.662 125.059 109.345 137.145 127.178 137.917C145.011 138.688 196.076 106.452 196.076 106.452C196.076 106.452 212.954 97.0367 223.111 111.592C233.268 126.148 163.518 156.039 157.163 164.74C150.807 173.44 159.601 192.512 176.976 186.645C194.351 180.779 173.736 144.667 184.051 133.558C194.366 122.448 237.162 105.128 223.111 87.5162C209.06 69.9039 163.011 106.742 146.736 113.095C130.461 119.448 117.027 99.857 117.027 87.5162" stroke="#FFFABE" stroke-width="5" stroke-linecap="round" stroke-linejoin="round"/>
</g>
<g filter="url(#filter2_d_605_30077)">
<path d="M113.26 90.2216C113.347 101.735 120.889 113.088 137.993 110.566C155.098 108.044 192.89 94.9151 202.757 95.4489C212.623 95.9828 220.997 104.725 209.399 118.294C197.801 131.862 139.399 147.224 139.399 147.224C139.399 147.224 112.571 158.761 126.92 174.613C141.27 190.465 183.924 154.081 208.567 158.516C233.209 162.95 232.602 188.476 212.486 188.32C192.371 188.164 182.583 156.948 167.423 156.915C152.264 156.882 110.41 176.369 107.112 154.081C103.814 131.793 162.161 123.239 177.907 115.669C193.653 108.099 188.487 84.913 179.461 76.4966" stroke="#FFFABE" stroke-width="5" stroke-linecap="round" stroke-linejoin="round"/>
</g>
<g filter="url(#filter3_d_605_30077)">
<path d="M232.188 129.975C223.429 135.418 209.952 136.047 200.754 123.97C191.556 111.892 176.945 81.598 170.136 75.5813C163.327 69.5645 151.283 68.417 148.557 82.2696C145.831 96.1222 172.135 140.584 172.135 140.584C172.135 140.584 180.832 163.148 159.535 161.598C138.238 160.047 138.046 115.556 118.696 102.009C99.3467 88.4627 80.4479 101.04 93.6249 113.753C106.802 126.465 136.75 117.777 146.617 127.398C156.483 137.019 168.926 172.931 187.913 164.383C206.899 155.834 175.486 114.66 170.986 101.035C166.485 87.4102 187.363 79.6202 199.584 81.3377" stroke="#FFFABE" stroke-width="5" stroke-linecap="round" stroke-linejoin="round"/>
</g>
<g filter="url(#filter4_d_605_30077)">
<path d="M199.086 206.697C190.239 199.085 186.538 185.948 200.009 174.681C213.48 163.415 249.092 143.474 255.324 135.672C261.557 127.87 260.435 115.815 242.129 115.682C223.822 115.55 172.602 149.594 172.602 149.594C172.602 149.594 145.608 162.297 143.012 141.069C140.415 119.841 197.288 111.469 210.457 89.9495C223.625 68.43 203.472 52.1591 190.043 67.4549C176.615 82.7507 194.168 110.603 183.982 122.075C173.796 133.547 130.533 152.388 145.55 169.486C160.568 186.585 206.485 148.121 222.946 141.19C239.408 134.258 253.862 153.356 254.293 165.689" stroke="#FFFABE" stroke-width="5" stroke-linecap="round" stroke-linejoin="round"/>
</g>
<circle cx="190.976" cy="84.7842" r="13.5" fill="#FF8A5A"/>
<circle cx="191.476" cy="85.2842" r="8" fill="#FF986D"/>
<path fill-rule="evenodd" clip-rule="evenodd" d="M229.247 80.9038C230.907 82.1096 231.149 84.3412 229.788 85.8882L225.057 91.2668L229.386 90.7093C231.429 90.4462 233.144 91.8949 233.216 93.9451C233.287 95.9953 231.678 97.5601 229.621 97.4401L221.026 96.9389C220.838 96.9279 220.652 96.9087 220.47 96.882C219.854 97.0484 219.135 96.7765 218.483 96.2054C217.738 95.7618 217.258 95.1621 217.225 94.5246C217.144 94.36 217.068 94.1893 217 94.0132L213.867 85.9942C213.117 84.075 214.108 82.0608 216.08 81.4954C218.052 80.9299 219.96 82.113 220.341 84.1378L220.989 87.5806L224.34 81.9295C225.39 80.1572 227.587 79.698 229.247 80.9038Z" fill="url(#paint0_linear_605_30077)"/>
<path fill-rule="evenodd" clip-rule="evenodd" d="M138.197 171.629C137.127 170.441 137.304 168.7 138.592 167.741L143.071 164.407L139.68 164.131C138.079 164 137.007 162.618 137.285 161.043C137.562 159.468 139.043 158.536 140.592 158.961L147.063 160.736C147.205 160.775 147.344 160.82 147.478 160.869C147.975 160.842 148.479 161.166 148.883 161.707C149.379 162.166 149.648 162.701 149.57 163.193C149.605 163.331 149.635 163.474 149.659 163.619L150.748 170.241C151.008 171.825 149.926 173.2 148.331 173.312C146.736 173.423 145.474 172.212 145.511 170.607L145.575 167.877L142.105 171.642C141.016 172.823 139.267 172.817 138.197 171.629Z" fill="url(#paint1_linear_605_30077)"/>
<circle cx="136.976" cy="135.784" r="12.5" fill="#FF8A5A"/>
<circle cx="137.476" cy="136.284" r="7" fill="#FF9C73"/>
<circle cx="211.976" cy="159.784" r="12.5" fill="#FF8A5A"/>
<circle cx="211.976" cy="159.784" r="7.5" fill="#FF9468"/>
<g filter="url(#filter5_d_605_30077)">
<path fill-rule="evenodd" clip-rule="evenodd" d="M153.185 72.3717L120.284 93.7383L163.172 159.781C170.102 170.452 184.075 173.791 195.017 167.657L195.045 167.7L196.372 166.838L209.145 158.543L232.435 143.419C240.772 138.004 243.142 126.856 237.727 118.519L235.968 115.809C230.553 107.472 219.405 105.103 211.068 110.517L187.779 125.641L153.185 72.3717Z" fill="url(#paint2_linear_605_30077)"/>
</g>
<mask id="mask3_605_30077" style="mask-type:luminance" maskUnits="userSpaceOnUse" x="120" y="72" width="121" height="99">
<path fill-rule="evenodd" clip-rule="evenodd" d="M153.185 72.3717L120.284 93.7383L163.172 159.781C170.102 170.452 184.075 173.791 195.017 167.657L195.045 167.7L196.372 166.838L209.145 158.543L232.435 143.419C240.772 138.004 243.142 126.856 237.727 118.519L235.968 115.809C230.553 107.472 219.405 105.103 211.068 110.517L187.779 125.641L153.185 72.3717Z" fill="white"/>
</mask>
<g mask="url(#mask3_605_30077)">
<rect opacity="0.5" x="110.456" y="92.3242" width="56.978" height="22.4176" transform="rotate(-33 110.456 92.3242)" fill="#9394D8"/>
<mask id="mask4_605_30077" style="mask-type:luminance" maskUnits="userSpaceOnUse" x="110" y="61" width="61" height="51">
<rect x="110.456" y="92.3242" width="56.978" height="22.4176" transform="rotate(-33 110.456 92.3242)" fill="white"/>
</mask>
<g mask="url(#mask4_605_30077)">
<path opacity="0.3" d="M122.453 82.8792L158.14 141.057" stroke="#6A6CC7"/>
<path opacity="0.3" d="M131.439 82.3558L167.126 140.534" stroke="#6A6CC7"/>
<path opacity="0.3" d="M137.063 74.9999L167.521 124.653" stroke="#6A6CC7"/>
<path opacity="0.3" d="M143.792 69.6396L171.112 114.178" stroke="#6A6CC7"/>
</g>
<circle opacity="0.5" cx="174.58" cy="178.205" r="22.8846" transform="rotate(-33 174.58 178.205)" fill="#9394D8"/>
</g>
<defs>
<filter id="filter0_d_605_30077" x="70.476" y="18.2842" width="223" height="223" filterUnits="userSpaceOnUse" color-interpolation-filters="sRGB">
<feFlood flood-opacity="0" result="BackgroundImageFix"/>
<feColorMatrix in="SourceAlpha" type="matrix" values="0 0 0 0 0 0 0 0 0 0 0 0 0 0 0 0 0 0 127 0" result="hardAlpha"/>
<feOffset dx="4" dy="7"/>
<feGaussianBlur stdDeviation="4"/>
<feColorMatrix type="matrix" values="0 0 0 0 0.883982 0 0 0 0 0.453665 0 0 0 0 0.138994 0 0 0 0.7652 0"/>
<feBlend mode="normal" in2="BackgroundImageFix" result="effect1_dropShadow_605_30077"/>
<feBlend mode="normal" in="SourceGraphic" in2="effect1_dropShadow_605_30077" result="shape"/>
</filter>
<filter id="filter1_d_605_30077" x="108.854" y="45.96" width="121.561" height="148.287" filterUnits="userSpaceOnUse" color-interpolation-filters="sRGB">
<feFlood flood-opacity="0" result="BackgroundImageFix"/>
<feColorMatrix in="SourceAlpha" type="matrix" values="0 0 0 0 0 0 0 0 0 0 0 0 0 0 0 0 0 0 127 0" result="hardAlpha"/>
<feOffset dx="2" dy="4"/>
<feColorMatrix type="matrix" values="0 0 0 0 0.212311 0 0 0 0 0.219121 0 0 0 0 0.221328 0 0 0 1 0"/>
<feBlend mode="normal" in2="BackgroundImageFix" result="effect1_dropShadow_605_30077"/>
<feBlend mode="normal" in="SourceGraphic" in2="effect1_dropShadow_605_30077" result="shape"/>
</filter>
<filter id="filter2_d_605_30077" x="104.476" y="73.9971" width="127.358" height="120.824" filterUnits="userSpaceOnUse" color-interpolation-filters="sRGB">
<feFlood flood-opacity="0" result="BackgroundImageFix"/>
<feColorMatrix in="SourceAlpha" type="matrix" values="0 0 0 0 0 0 0 0 0 0 0 0 0 0 0 0 0 0 127 0" result="hardAlpha"/>
<feOffset dx="2" dy="4"/>
<feColorMatrix type="matrix" values="0 0 0 0 0.212311 0 0 0 0 0.219121 0 0 0 0 0.221328 0 0 0 1 0"/>
<feBlend mode="normal" in2="BackgroundImageFix" result="effect1_dropShadow_605_30077"/>
<feBlend mode="normal" in="SourceGraphic" in2="effect1_dropShadow_605_30077" result="shape"/>
</filter>
<filter id="filter3_d_605_30077" x="86.7378" y="68.8252" width="149.951" height="103.362" filterUnits="userSpaceOnUse" color-interpolation-filters="sRGB">
<feFlood flood-opacity="0" result="BackgroundImageFix"/>
<feColorMatrix in="SourceAlpha" type="matrix" values="0 0 0 0 0 0 0 0 0 0 0 0 0 0 0 0 0 0 127 0" result="hardAlpha"/>
<feOffset dx="2" dy="4"/>
<feColorMatrix type="matrix" values="0 0 0 0 0.212311 0 0 0 0 0.219121 0 0 0 0 0.221328 0 0 0 1 0"/>
<feBlend mode="normal" in2="BackgroundImageFix" result="effect1_dropShadow_605_30077"/>
<feBlend mode="normal" in="SourceGraphic" in2="effect1_dropShadow_605_30077" result="shape"/>
</filter>
<filter id="filter4_d_605_30077" x="139.915" y="58.9502" width="123.334" height="154.247" filterUnits="userSpaceOnUse" color-interpolation-filters="sRGB">
<feFlood flood-opacity="0" result="BackgroundImageFix"/>
<feColorMatrix in="SourceAlpha" type="matrix" values="0 0 0 0 0 0 0 0 0 0 0 0 0 0 0 0 0 0 127 0" result="hardAlpha"/>
<feOffset dx="2" dy="4"/>
<feColorMatrix type="matrix" values="0 0 0 0 0.212311 0 0 0 0 0.219121 0 0 0 0 0.221328 0 0 0 1 0"/>
<feBlend mode="normal" in2="BackgroundImageFix" result="effect1_dropShadow_605_30077"/>
<feBlend mode="normal" in="SourceGraphic" in2="effect1_dropShadow_605_30077" result="shape"/>
</filter>
<filter id="filter5_d_605_30077" x="118.284" y="72.3721" width="122.35" height="104.341" filterUnits="userSpaceOnUse" color-interpolation-filters="sRGB">
<feFlood flood-opacity="0" result="BackgroundImageFix"/>
<feColorMatrix in="SourceAlpha" type="matrix" values="0 0 0 0 0 0 0 0 0 0 0 0 0 0 0 0 0 0 127 0" result="hardAlpha"/>
<feOffset dx="-2" dy="6"/>
<feColorMatrix type="matrix" values="0 0 0 0 0.0146055 0 0 0 0 0.0642853 0 0 0 0 0.113095 0 0 0 0.287845 0"/>
<feBlend mode="normal" in2="BackgroundImageFix" result="effect1_dropShadow_605_30077"/>
<feBlend mode="normal" in="SourceGraphic" in2="effect1_dropShadow_605_30077" result="shape"/>
</filter>
<linearGradient id="paint0_linear_605_30077" x1="224.085" y1="88.495" x2="223.721" y2="88.2306" gradientUnits="userSpaceOnUse">
<stop stop-color="#46AB5F"/>
<stop offset="1" stop-color="#479735"/>
</linearGradient>
<linearGradient id="paint1_linear_605_30077" x1="143.363" y1="166.678" x2="143.597" y2="166.939" gradientUnits="userSpaceOnUse">
<stop stop-color="#46AB5F"/>
<stop offset="1" stop-color="#479735"/>
</linearGradient>
<linearGradient id="paint2_linear_605_30077" x1="147.497" y1="28.5912" x2="97.5949" y2="133.779" gradientUnits="userSpaceOnUse">
<stop stop-color="#928AB2"/>
<stop offset="1" stop-color="#E0E0E0"/>
</linearGradient>
</defs>
</svg>
