<svg width="432" height="352" viewBox="0 0 432 352" fill="none" xmlns="http://www.w3.org/2000/svg">
<path fill-rule="evenodd" clip-rule="evenodd" d="M230.156 343.105L0.956787 351.346L113.556 325.735L220.412 334.395L230.156 343.105Z" fill="url(#paint0_linear_606_26686)" fill-opacity="0.21" style="mix-blend-mode:multiply"/>
<ellipse cx="294.414" cy="335.335" rx="25" ry="3" fill="url(#paint1_linear_606_26686)" fill-opacity="0.21" style="mix-blend-mode:multiply"/>
<path fill-rule="evenodd" clip-rule="evenodd" d="M160.827 283.538C160.827 283.538 154.901 292.749 156.876 304.789C158.852 316.829 158.605 334.558 158.605 334.558H165.153L173.327 280.885C173.327 280.885 164.044 277.376 160.827 278.058C157.611 278.741 160.827 283.538 160.827 283.538Z" fill="#9EA4B8"/>
<path fill-rule="evenodd" clip-rule="evenodd" d="M195.492 285.064C195.492 285.064 191.79 295.371 196.423 306.659C201.057 317.946 204.804 335.276 204.804 335.276L211.184 333.803L207.075 279.667L190.683 276.077L195.492 285.064Z" fill="#9EA4B8"/>
<path fill-rule="evenodd" clip-rule="evenodd" d="M158.414 334.335L166.426 331.917L171.814 334.335L179.412 335.126C180.622 335.252 181.633 336.102 181.968 337.271C182.693 339.809 180.787 342.335 178.148 342.335H162.414C160.205 342.335 158.414 340.544 158.414 338.335V334.335Z" fill="#302C48"/>
<path fill-rule="evenodd" clip-rule="evenodd" d="M204.414 334.335L212.426 331.917L217.814 334.335L225.412 335.126C226.622 335.252 227.633 336.102 227.968 337.271C228.693 339.809 226.787 342.335 224.148 342.335H208.414C206.205 342.335 204.414 340.544 204.414 338.335V334.335Z" fill="#302C48"/>
<path fill-rule="evenodd" clip-rule="evenodd" d="M156.414 283.052V229.335H204.365L210.521 283.052H188.633L181.894 255.395L177.145 283.052H156.414Z" fill="#302C48"/>
<path d="M157.666 214.155C147.941 202.813 147.65 203.077 143.583 196.174C141.642 192.879 139.292 190.213 139.472 189.868C142.139 184.756 150.024 179.565 162.692 166.335L157.294 153.175C139.37 167.074 133.22 178.21 130.086 184.217C129.327 185.673 127.981 188.319 128.063 190.131C128.425 198.112 138.084 208.302 156.253 220.541L157.666 214.155Z" fill="#9EA4B8"/>
<path fill-rule="evenodd" clip-rule="evenodd" d="M258.264 159.945C258.264 159.945 264.792 152.082 265.389 149.496C266.816 147.818 267.899 151.272 267.899 151.272C267.899 151.272 263.942 168.011 259.997 170.678C256.053 173.346 256.053 170.678 256.053 170.678L258.264 159.945Z" fill="#9EA4B8"/>
<path d="M301.218 329.449C312.573 313.522 307.417 281.207 280.914 248.552C254.412 215.896 226.555 180.855 260.032 158.855C270.591 151.916 289.368 148.062 304.218 156.033" stroke="#CDD4E0"/>
<path fill-rule="evenodd" clip-rule="evenodd" d="M256.241 172.556C253.89 173.118 252.601 164.246 254.952 162.622C257.303 160.998 256.188 154.136 258.175 154.443C260.163 154.749 259.193 157.38 259.29 159.257C259.387 161.135 258.592 171.993 256.241 172.556Z" fill="#9EA4B8"/>
<path d="M253.949 168.942C242.274 178.265 242.528 178.566 235.487 182.389C232.126 184.214 229.38 186.469 229.041 186.278C224.026 183.434 219.113 175.373 206.333 162.25L192.992 167.186C206.258 185.584 217.173 192.119 223.067 195.461C230.785 199.837 244.495 192.334 260.282 170.577L253.949 168.942Z" fill="#9EA4B8"/>
<path fill-rule="evenodd" clip-rule="evenodd" d="M182.422 107.14C182.422 107.14 182.209 111.002 184.917 113.153C187.942 115.553 191.327 118.328 192.109 119.319C193.59 121.198 190.628 121.198 190.628 121.198L192.109 133.331L179.789 138.844L182.422 149.115H167.663L165.804 138.844C165.804 138.844 170.101 119.557 172.807 114.393C176.475 107.395 182.422 107.14 182.422 107.14Z" fill="#9EA4B8"/>
<ellipse cx="164.221" cy="118.085" rx="16.8062" ry="21.25" fill="#302C48"/>
<ellipse cx="172.414" cy="100.835" rx="7" ry="6.5" fill="#302C48"/>
<ellipse cx="164.914" cy="98.5135" rx="4.5" ry="4.17857" fill="#302C48"/>
<ellipse cx="157.414" cy="104.835" rx="7" ry="6.5" fill="#302C48"/>
<ellipse cx="153.414" cy="111.835" rx="7" ry="6.5" fill="#302C48"/>
<ellipse cx="158.914" cy="99.585" rx="3.5" ry="3.25" fill="#302C48"/>
<ellipse cx="178.914" cy="101.585" rx="3.5" ry="3.25" fill="#302C48"/>
<ellipse cx="180.914" cy="106.585" rx="3.5" ry="3.25" fill="#302C48"/>
<ellipse cx="180.414" cy="122.835" rx="4" ry="4.5" fill="#9EA4B8"/>
<path fill-rule="evenodd" clip-rule="evenodd" d="M134.781 169.736L156.058 150.005C156.058 150.005 166.297 146.335 172.959 146.335C176.201 146.335 171.51 146.335 182.804 146.335C186.978 146.335 198.902 150.005 198.902 150.005L214.621 169.736L204.643 183.903L193.729 169.736L205.902 237.36C205.902 237.36 193.543 241.479 182.804 241.479C172.064 241.479 156.058 237.479 156.058 237.479V174.554L148.198 183.903L134.781 169.736Z" fill="white"/>
<g style="mix-blend-mode:multiply" opacity="0.195312">
<path fill-rule="evenodd" clip-rule="evenodd" d="M177.116 283.127L178.3 244.824L181.808 255.462L177.116 283.127Z" fill="#3B3C45"/>
</g>
<g style="mix-blend-mode:multiply" opacity="0.549819">
<path fill-rule="evenodd" clip-rule="evenodd" d="M201.056 210.065L188.215 166.281C188.215 166.281 193.489 167.93 193.78 170.044C194.072 172.159 201.056 210.065 201.056 210.065Z" fill="#DEEAF4"/>
</g>
<ellipse cx="313.914" cy="326.335" rx="3.5" ry="9" fill="#302C48"/>
<rect x="291.414" y="320.335" width="22" height="13" fill="#302C48"/>
<path fill-rule="evenodd" clip-rule="evenodd" d="M298.414 320.335H307.414C307.414 320.335 309.414 322.484 309.414 326.743C309.414 331.002 307.414 333.335 307.414 333.335H298.414C298.414 333.335 300.414 330.5 300.414 327.112C300.414 323.723 298.414 320.335 298.414 320.335Z" fill="white"/>
<ellipse cx="291.914" cy="326.335" rx="3.5" ry="10" fill="#686B89"/>
<path fill-rule="evenodd" clip-rule="evenodd" d="M415.15 7.72862L404.126 28.4609L390.118 21.0126L415.15 7.72862Z" fill="#52556E"/>
<path fill-rule="evenodd" clip-rule="evenodd" d="M417.035 8.73036L406.011 29.4627L420.02 36.911L417.035 8.73036Z" fill="#9EA4B8"/>
<path fill-rule="evenodd" clip-rule="evenodd" d="M391.92 51.4171L402.944 30.6848L388.935 23.2365L391.92 51.4171Z" fill="#9EA4B8"/>
<path fill-rule="evenodd" clip-rule="evenodd" d="M393.805 52.4198L404.828 31.6875L418.837 39.1359L393.805 52.4198Z" fill="#52556E"/>
<path fill-rule="evenodd" clip-rule="evenodd" d="M387.821 21.9137L380.846 15.2361L387.19 12.2778L387.821 21.9137Z" fill="#52556E"/>
<path fill-rule="evenodd" clip-rule="evenodd" d="M387.3 22.8221L377.743 21.4364L379.318 28.257L387.3 22.8221Z" fill="#9EA4B8"/>
<path fill-rule="evenodd" clip-rule="evenodd" d="M420.046 38.6975L426.904 45.4958L420.509 48.343L420.046 38.6975Z" fill="#52556E"/>
<path fill-rule="evenodd" clip-rule="evenodd" d="M420.583 37.7975L430.114 39.3499L428.659 32.5028L420.583 37.7975Z" fill="#9EA4B8"/>
<path opacity="0.7" d="M392.782 53.1035C392.782 56.9356 383.473 73.6658 407.712 94.8976C431.951 116.129 419.586 143.877 407.712 153.162" stroke="white" stroke-width="2" stroke-linecap="round" stroke-linejoin="round"/>
<path fill-rule="evenodd" clip-rule="evenodd" d="M391.709 70.1302L386.628 78.3417L382.415 72.7513L391.709 70.1302Z" fill="#52556E"/>
<path fill-rule="evenodd" clip-rule="evenodd" d="M391.475 71.4829L400.813 69.0244L396.699 63.3613L391.475 71.4829Z" fill="#9EA4B8"/>
<path fill-rule="evenodd" clip-rule="evenodd" d="M403.017 90.7594L402.386 100.395L396.041 97.437L403.017 90.7594Z" fill="#9EA4B8"/>
<path fill-rule="evenodd" clip-rule="evenodd" d="M403.289 90.949L410.147 84.1506L403.752 81.3035L403.289 90.949Z" fill="#52556E"/>
<path fill-rule="evenodd" clip-rule="evenodd" d="M420.374 113.377L413.004 119.616L410.725 112.997L420.374 113.377Z" fill="#52556E"/>
<path fill-rule="evenodd" clip-rule="evenodd" d="M420.008 113.672L429.654 113.209L426.807 106.814L420.008 113.672Z" fill="#9EA4B8"/>
<path fill-rule="evenodd" clip-rule="evenodd" d="M417.484 139.928L407.905 141.147L409.599 134.355L417.484 139.928Z" fill="#9EA4B8"/>
<path fill-rule="evenodd" clip-rule="evenodd" d="M417.652 140.29L426.158 144.861L427.011 137.913L417.652 140.29Z" fill="#52556E"/>
<path d="M323.655 112.466C338.249 111.611 360.621 103.061 365.955 75.2815C371.29 47.5021 385.57 33.9807 402.692 30.3545" stroke="#CDD4E0"/>
<defs>
<linearGradient id="paint0_linear_606_26686" x1="353.778" y1="376.18" x2="355.164" y2="320.35" gradientUnits="userSpaceOnUse">
<stop stop-color="#536DB5" stop-opacity="0.01"/>
<stop offset="1" stop-color="#0E284B"/>
</linearGradient>
<linearGradient id="paint1_linear_606_26686" x1="295.624" y1="341.658" x2="296.953" y2="328.257" gradientUnits="userSpaceOnUse">
<stop stop-color="#536DB5" stop-opacity="0.01"/>
<stop offset="1" stop-color="#0E284B"/>
</linearGradient>
</defs>
</svg>
